<svg width="600" height="600" viewBox="0 0 600 600" xmlns="http://www.w3.org/2000/svg">
    <polygon points="178,405 172,410 164,389 164,384 172,384 173,389" fill="#FFADAD" stroke="black" stroke-width="1"/>
    <text x="170" y="397" font-family="Arial" font-size="6" fill="black" text-anchor="middle">Café das Gerais – Loja 35</text>
    <polygon points="590.153,230.781 572.991,230.781 572.991,210.899 590.153,210.899" fill="#FFD6A5" stroke="black" stroke-width="1"/>
    <text x="581.572" y="220.84" font-family="Arial" font-size="6" fill="black" text-anchor="middle">VITRINE DOS CARRINHOS – DRO</text>
    <polygon points="68.897,352.615 48.771,352.615 48.771,341.569 68.897,341.569" fill="#FDFFB6" stroke="black" stroke-width="1"/>
    <text x="58.834" y="347.092" font-family="Arial" font-size="6" fill="black" text-anchor="middle">CIA DO QUEIJO</text>
    <polygon points="476.481,118.194 460.577,118.194 460.577,88.194 441.577,88.194 441.577,69.649 476.481,69.649" fill="#CAFFBF" stroke="black" stroke-width="1"/>
    <text x="459.029" y="93.921" font-family="Arial" font-size="6" fill="black" text-anchor="middle">Bar ao Lado</text>
    <polygon points="486.68,324.356 476.272,324.356 476.272,294.265 486.68,294.265" fill="#9BF6FF" stroke="black" stroke-width="1"/>
    <text x="481.476" y="309.31" font-family="Arial" font-size="6" fill="black" text-anchor="middle">BANCA DO TIMOTEO</text>
    <polygon points="400.457,155.734 372.439,155.734 372.439,147.327 400.457,147.327" fill="#A0C4FF" stroke="black" stroke-width="1"/>
    <text x="386.448" y="151.53" font-family="Arial" font-size="6" fill="black" text-anchor="middle">LOJA DU SALIM</text>
    <polygon points="346,234 357,234 357,223 346,223" fill="#BDB2FF" stroke="black" stroke-width="1"/>
    <text x="351.5" y="228.5" font-family="Arial" font-size="6" fill="black" text-anchor="middle">CAMINHO DA ROÇA – loja 181</text>
    <polygon points="250,524 250,540 235,540 235,524" fill="#FFC6FF" stroke="black" stroke-width="1"/>
    <text x="242.5" y="532.0" font-family="Arial" font-size="6" fill="black" text-anchor="middle">MERCADO ORIENTAL</text>
    <polygon points="226,190 209,174 226,174" fill="#FFFFFC" stroke="black" stroke-width="1"/>
    <text x="220.333" y="179.333" font-family="Arial" font-size="6" fill="black" text-anchor="middle">RELÓGIOS BRASIL</text>
    <polygon points="68.897,353.615 48.771,353.615 48.771,366.569 68.897,366.569" fill="#E6A7A7" stroke="black" stroke-width="1"/>
    <text x="58.834" y="360.092" font-family="Arial" font-size="6" fill="black" text-anchor="middle">BH PEDRAS E CRISTAIS</text>
    <polygon points="276,34 361,34 362,28 275,27" fill="#E6CC8A" stroke="black" stroke-width="1"/>
    <text x="318.5" y="30.5" font-family="Arial" font-size="6" fill="black" text-anchor="middle">CA IMPORTADOS</text>
    <polygon points="276,34 361,34 362,28 275,27" fill="#E6E099" stroke="black" stroke-width="1"/>
    <text x="318.5" y="30.5" font-family="Arial" font-size="6" fill="black" text-anchor="middle">XEROX DANIEL</text>
    <polygon points="433,214 418,214 418,232 433,232" fill="#B3E699" stroke="black" stroke-width="1"/>
    <text x="425.5" y="223.0" font-family="Arial" font-size="6" fill="black" text-anchor="middle">ARMAZÉM DONA LUCINHA</text>
    <polygon points="268.363,353.514 288.923,353.514 288.923,342.347 268.363,342.347" fill="#8ACCEC" stroke="black" stroke-width="1"/>
    <text x="278.643" y="347.93" font-family="Arial" font-size="6" fill="black" text-anchor="middle">SERVICE</text>
    <polygon points="296.375,245.325 312.986,245.325 312.986,234.572 296.375,234.572" fill="#8AB3E6" stroke="black" stroke-width="1"/>
    <text x="304.68" y="239.948" font-family="Arial" font-size="6" fill="black" text-anchor="middle">QUEIJARIA PRIMO</text>
    <polygon points="85.484,208.232 102.233,208.232 102.233,223.568 85.484,223.568" fill="#B38AE6" stroke="black" stroke-width="1"/>
    <text x="93.858" y="215.9" font-family="Arial" font-size="6" fill="black" text-anchor="middle">LOJA DO TIAO(FILIAL)</text>
    <polygon points="118.048,414.748 118.048,406.218 134.766,406.218 134.766,414.748" fill="#E68AB3" stroke="black" stroke-width="1"/>
    <text x="126.407" y="410.483" font-family="Arial" font-size="6" fill="black" text-anchor="middle">DAQUI DE MINAS ARTESANATOS</text>
    <polygon points="102.884,347.293 85.233,347.293 85.238,356.87 102.884,356.870" fill="#99E6E6" stroke="black" stroke-width="1"/>
    <text x="94.058" y="352.081" font-family="Arial" font-size="6" fill="black" text-anchor="middle">MELHOR DA ROÇA</text>
    <polygon points="102.884,368.085 85.233,368.085 85.233,394.354 102.884,394.354" fill="#E6D399" stroke="black" stroke-width="1"/>
    <text x="94.058" y="381.219" font-family="Arial" font-size="6" fill="black" text-anchor="middle">ARMAZÉM CENTRAL – Loja 107</text>
    <polygon points="570,536 564,541 555,541 555,522" fill="#E6B399" stroke="black" stroke-width="1"/>
    <text x="561.0" y="535.0" font-family="Arial" font-size="6" fill="black" text-anchor="middle">ROÇA CAPITAL ARMAZÉM MINEIRO</text>
    <polygon points="349,457 349,487 346,487 346,498 337,498 337,457" fill="#CC99E6" stroke="black" stroke-width="1"/>
    <text x="343.0" y="477.5" font-family="Arial" font-size="6" fill="black" text-anchor="middle">PAIVA DESIGN</text>
    <polygon points="555.264,415.025 536.059,415.025 536.059,406.13 555.264,406.13" fill="#99E699" stroke="black" stroke-width="1"/>
    <text x="545.661" y="410.578" font-family="Arial" font-size="6" fill="black" text-anchor="middle">NARJES ARABE CUISINE</text>
    <polygon points="555.264,308 545.264,308 545.264,299 523.024,299.523 523.024,321.013 555.264,321.013" fill="#99CCF0" stroke="black" stroke-width="1"/>
    <text x="539.044" y="309.51" font-family="Arial" font-size="6" fill="black" text-anchor="middle">EMPÓRIO ÁRABE HANA</text>
    <polygon points="486.876,358.605 466.468,358.605 466.468,348.665 486.876,348.665" fill="#F099CC" stroke="black" stroke-width="1"/>
    <text x="476.672" y="353.635" font-family="Arial" font-size="6" fill="black" text-anchor="middle">VIDA E ERVAS</text>
    <polygon points="365,234 358,234 358,223 365,223" fill="#CC9999" stroke="black" stroke-width="1"/>
    <text x="361.5" y="228.5" font-family="Arial" font-size="6" fill="black" text-anchor="middle">BARBEARIA DO ELIEZER</text>
    <polygon points="353,245 327,245 327,235 353,235" fill="#99E6C2" stroke="black" stroke-width="1"/>
    <text x="340.0" y="240.0" font-family="Arial" font-size="6" fill="black" text-anchor="middle">EMPÓRIO MERCADO CENTRAL</text>
    <polygon points="461.851,171.594 465.543,177.808 484.105,171.564 475.68,157.59" fill="#C299E6" stroke="black" stroke-width="1"/>
    <text x="471.795" y="166.639" font-family="Arial" font-size="6" fill="black" text-anchor="middle">EMPORIO MINEIRO</text>
    <polygon points="385,295 401,295 401,308 385,308" fill="#E6C299" stroke="black" stroke-width="1"/>
    <text x="393.0" y="301.5" font-family="Arial" font-size="6" fill="black" text-anchor="middle">PONTO DO ALUMINIO</text>
    <polygon points="385,309 401,309 401,318 385,318 370,318 370,295 385,295" fill="#99C2E6" stroke="black" stroke-width="1"/>
    <text x="385.5" y="306.5" font-family="Arial" font-size="6" fill="black" text-anchor="middle">CASA SAGRADO CORAÇÃO DE JESUS</text>
    <polygon points="355,206 345,206 345,191 355,191" fill="#E699C2" stroke="black" stroke-width="1"/>
    <text x="350.0" y="198.5" font-family="Arial" font-size="6" fill="black" text-anchor="middle">QUEIJARIA MERCADO BH</text>
    <polygon points="348,386 327,386 327,371 348,371" fill="#C2E699" stroke="black" stroke-width="1"/>
    <text x="337.5" y="378.5" font-family="Arial" font-size="6" fill="black" text-anchor="middle">MERCADO DO QUEIJO</text>
    <polygon points="327,342 356,342 356,330 327,330" fill="#99E699" stroke="black" stroke-width="1"/>
    <text x="341.5" y="336.0" font-family="Arial" font-size="6" fill="black" text-anchor="middle">DUNN CERVEJARIA</text>
    <polygon points="367,386 349,386 349,371 367,371" fill="#99C2E6" stroke="black" stroke-width="1"/>
    <text x="358.0" y="378.5" font-family="Arial" font-size="6" fill="black" text-anchor="middle">MELAÇO</text>
    <polygon points="507.252,488.683 507.252,505.261 513.16,505.261 513.16,488.683" fill="#E699C2" stroke="black" stroke-width="1"/>
    <text x="510.206" y="496.972" font-family="Arial" font-size="6" fill="black" text-anchor="middle">CENTRAL PEDRAS LOJA 267</text>
    <polygon points="435,430 427,430 427,438 435,439 452,436 448,427" fill="#C2E699" stroke="black" stroke-width="1"/>
    <text x="439.0" y="433.5" font-family="Arial" font-size="6" fill="black" text-anchor="middle">LOJA DA KIKA</text>
    <polygon points="409,429 403,429 403,420 409,420" fill="#99E699" stroke="black" stroke-width="1"/>
    <text x="406.0" y="424.5" font-family="Arial" font-size="6" fill="black" text-anchor="middle">LOJA 4</text>
    <polygon points="349,430 329,430 329,439 349,439" fill="#99C2E6" stroke="black" stroke-width="1"/>
    <text x="339.0" y="434.5" font-family="Arial" font-size="6" fill="black" text-anchor="middle">FABRIQUETA ARTE</text>
    <polygon points="301,429 295,429 295,420 301,420" fill="#E699C2" stroke="black" stroke-width="1"/>
    <text x="298.0" y="424.5" font-family="Arial" font-size="6" fill="black" text-anchor="middle">LOJA 04</text>
    <polygon points="294,429 278,429 278,420 294,420" fill="#C2E699" stroke="black" stroke-width="1"/>
    <text x="286.0" y="424.5" font-family="Arial" font-size="6" fill="black" text-anchor="middle">LOJA DE PANO DE PRATO – ANTONIETA</text>
    <polygon points="277,429 262,429 262,420 277,420" fill="#99E699" stroke="black" stroke-width="1"/>
    <text x="269.5" y="424.5" font-family="Arial" font-size="6" fill="black" text-anchor="middle">CRISBELE UTENSILIOS DOMESTICOS</text>
    <polygon points="548.755,387.702 555.714,387.702 555.714,360.271 548.755,360.271" fill="#99C2E6" stroke="black" stroke-width="1"/>
    <text x="552.234" y="373.986" font-family="Arial" font-size="6" fill="black" text-anchor="middle">VITRINE DOS CARRINHOS – DRO</text>
    <polygon points="521.743,226.557 506.927,226.557 506.927,212.522 521.743,212.522" fill="#E699C2" stroke="black" stroke-width="1"/>
    <text x="514.335" y="219.54" font-family="Arial" font-size="6" fill="black" text-anchor="middle">IRMÃOS SOUZA</text>
    <polygon points="557.264,118.878 542.711,118.878 542.711,135.365 557.264,135.365" fill="#C2E699" stroke="black" stroke-width="1"/>
    <text x="550.0" y="127.121" font-family="Arial" font-size="6" fill="black" text-anchor="middle">MANE DOIDO (ANEXO)</text>
    <polygon points="522.591,321.215 505.341,321.215 505.341,298.506 522.591,298.506" fill="#99E699" stroke="black" stroke-width="1"/>
    <text x="513.966" y="309.86" font-family="Arial" font-size="6" fill="black" text-anchor="middle">CENTRAL DAS PIMENTAS LOJA 50</text>
    <polygon points="536.618,293.127 506.608,293.127 506.608,298.435 536.618,298.435" fill="#99C2E6" stroke="black" stroke-width="1"/>
    <text x="521.613" y="295.781" font-family="Arial" font-size="6" fill="black" text-anchor="middle">BAR FORTALEZA</text>
    <polygon points="523,170 523,239 555,239 555,172 536,172 536,154 523,154" fill="#E699C2" stroke="black" stroke-width="1"/>
    <text x="539.0" y="196.5" font-family="Arial" font-size="6" fill="black" text-anchor="middle">BOM GRILL</text>
    <polygon points="248,70 260,70 260,86 248,87" fill="#C2E699" stroke="black" stroke-width="1"/>
    <text x="254.0" y="78.5" font-family="Arial" font-size="6" fill="black" text-anchor="middle">SO DI MINAS</text>
    <polygon points="235.675,87.89 225.222,87.89 225.222,70.466 235.675,70.466" fill="#99E699" stroke="black" stroke-width="1"/>
    <text x="230.448" y="79.178" font-family="Arial" font-size="6" fill="black" text-anchor="middle">ME LEVA BEAGÁ</text>
    <polygon points="207.002,87.452 179.54,87.452 179.54,69.028 207.002,69.028" fill="#99C2E6" stroke="black" stroke-width="1"/>
    <text x="193.271" y="78.24" font-family="Arial" font-size="6" fill="black" text-anchor="middle">CASA DO MERCADO</text>
    <polygon points="179.366,87.89 155.859,87.89 155.859,69.466 179.366,69.466" fill="#E699C2" stroke="black" stroke-width="1"/>
    <text x="167.612" y="78.678" font-family="Arial" font-size="6" fill="black" text-anchor="middle">Uai Retrô GEEK</text>
    <polygon points="556.998,87.531 509.165,87.531 509.165,69.649 557.198,69.649" fill="#C2E699" stroke="black" stroke-width="1"/>
    <text x="533.181" y="78.59" font-family="Arial" font-size="6" fill="black" text-anchor="middle">ARTESANATO BRUGNARA E DUARTE</text>
    <polygon points="261,70 270,70 270,86 261,87" fill="#99E699" stroke="black" stroke-width="1"/>
    <text x="265.5" y="78.5" font-family="Arial" font-size="6" fill="black" text-anchor="middle">BH PEDRAS E CRISTAIS – LOJA 66</text>
    <polygon points="489,540 480,540 480,524 489,524" fill="#99C2E6" stroke="black" stroke-width="1"/>
    <text x="484.5" y="532.0" font-family="Arial" font-size="6" fill="black" text-anchor="middle">PARAÍSO DAS PIMENTAS loja 74</text>
    <polygon points="205.062,136.643 205.062,145.734 193.896,146.734 191.941,137.327" fill="#E699C2" stroke="black" stroke-width="1"/>
    <text x="198.991" y="141.689" font-family="Arial" font-size="6" fill="black" text-anchor="middle">Loja do Abacaxi</text>
    <polygon points="367,524 367,540 392,540 392,524" fill="#C2E699" stroke="black" stroke-width="1"/>
    <text x="379.5" y="532.0" font-family="Arial" font-size="6" fill="black" text-anchor="middle">Café das Gerais – Loja 82</text>
    <polygon points="118.048,391.748 118.048,406.218 134.766,406.218 134.766,391.748" fill="#99E699" stroke="black" stroke-width="1"/>
    <text x="126.407" y="398.983" font-family="Arial" font-size="6" fill="black" text-anchor="middle">FLORA MINAS</text>
    <polygon points="262,402 227,402 227,371 262,371" fill="#99C2E6" stroke="black" stroke-width="1"/>
    <text x="244.5" y="386.5" font-family="Arial" font-size="6" fill="black" text-anchor="middle">LÁ NO MERCADO CHOPERIA</text>
    <polygon points="395,402 378,402 378,371 395,371" fill="#E699C2" stroke="black" stroke-width="1"/>
    <text x="386.5" y="386.5" font-family="Arial" font-size="6" fill="black" text-anchor="middle">LÁ NO MERCADO CAFÉ</text>
    <polygon points="428,281 418,281 418,259 428,259" fill="#C2E699" stroke="black" stroke-width="1"/>
    <text x="423.0" y="270.0" font-family="Arial" font-size="6" fill="black" text-anchor="middle">PALÁCIO DAS CASTANHAS</text>
    <polygon points="271,270 313,270 313,282 271,282" fill="#99E699" stroke="black" stroke-width="1"/>
    <text x="292.0" y="276.0" font-family="Arial" font-size="6" fill="black" text-anchor="middle">VITRINE DO QUEIJO</text>
    <polygon points="85.484,264.632 91.233,264.632 91.233,253.568 85.484,253.568" fill="#99C2E6" stroke="black" stroke-width="1"/>
    <text x="88.358" y="259.1" font-family="Arial" font-size="6" fill="black" text-anchor="middle">MIMO</text>
    <polygon points="413,402 397,402 397,371 413,371" fill="#E699C2" stroke="black" stroke-width="1"/>
    <text x="405.0" y="386.5" font-family="Arial" font-size="6" fill="black" text-anchor="middle">LÁ NO MERCADO CAFÉ</text>
    <polygon points="344,206 327,206 327,189 344,189" fill="#C2E699" stroke="black" stroke-width="1"/>
    <text x="335.5" y="197.5" font-family="Arial" font-size="6" fill="black" text-anchor="middle">LATICÍNIOS CAÇULINHA</text>
    <polygon points="68.05,120.076 48.845,120.076 48.845,148.207 68.05,148.207" fill="#99E699" stroke="black" stroke-width="1"/>
    <text x="58.448" y="134.142" font-family="Arial" font-size="6" fill="black" text-anchor="middle">AVIARIO DEVANIR</text>
    <polygon points="342.117,53.000 374.589,53.000 374.589,34.446 342.117,34.446" fill="#99C2E6" stroke="black" stroke-width="1"/>
    <text x="358.353" y="43.723" font-family="Arial" font-size="6" fill="black" text-anchor="middle">COLORIDA BEAGÁ</text>
    <polygon points="575,64 575,68 568,68 568,62 580,50 590,60 582,60 582,65" fill="#E699C2" stroke="black" stroke-width="1"/>
    <text x="579.5" y="60.5" font-family="Arial" font-size="6" fill="black" text-anchor="middle">ARTESANATO BRUGNARA E DUARTE</text>
    <polygon points="544.242,53.000 522.662,53.000 522.662,34.446 544.242,34.446" fill="#C2E699" stroke="black" stroke-width="1"/>
    <text x="533.452" y="43.723" font-family="Arial" font-size="6" fill="black" text-anchor="middle">ARTESANATO BRUGNARA E DUARTE</text>
    <polygon points="358,420 358,424 373,424 373,420" fill="#99E699" stroke="black" stroke-width="1"/>
    <text x="365.5" y="422.0" font-family="Arial" font-size="6" fill="black" text-anchor="middle">MG SPORTS</text>
    <polygon points="222,264 201,264 201,259 222,259" fill="#99C2E6" stroke="black" stroke-width="1"/>
    <text x="211.5" y="261.5" font-family="Arial" font-size="6" fill="black" text-anchor="middle">FRAU BONDAN</text>
    <polygon points="63,529 79,509 75,504 48,515" fill="#E699C2" stroke="black" stroke-width="1"/>
    <text x="66.25" y="514.25" font-family="Arial" font-size="6" fill="black" text-anchor="middle">SAUDE DO CAMPO</text>
    <polygon points="401,343 388,343 388,353 401,353" fill="#C2E699" stroke="black" stroke-width="1"/>
    <text x="394.5" y="348.0" font-family="Arial" font-size="6" fill="black" text-anchor="middle">KAPEH – FECHADA – ATENDIMENTO NO WHATSAPP</text>
    <polygon points="229.963,53.000 139.818,53.000 139.818,34.446 229.963,34.446" fill="#99E699" stroke="black" stroke-width="1"/>
    <text x="184.89" y="43.723" font-family="Arial" font-size="6" fill="black" text-anchor="middle">EMPORIO ANDRADE</text>
    <polygon points="378,206 396,206 396,191 378,191" fill="#99C2E6" stroke="black" stroke-width="1"/>
    <text x="387.0" y="198.5" font-family="Arial" font-size="6" fill="black" text-anchor="middle">COMERCIAL BEATRIZ / QUEIJARIA DO SALIM</text>
    <polygon points="68.897,354.015 48.771,354.015 48.771,325.569 68.897,325.569" fill="#E699C2" stroke="black" stroke-width="1"/>
    <text x="58.834" y="339.792" font-family="Arial" font-size="6" fill="black" text-anchor="middle">CANTIM DE FORMIGA</text>
    <polygon points="68.897,340.615 48.771,340.615 48.771,325.569 68.897,325.569" fill="#C2E699" stroke="black" stroke-width="1"/>
    <text x="58.834" y="333.092" font-family="Arial" font-size="6" fill="black" text-anchor="middle">CANTIM DE FORMIGA</text>
    <polygon points="276,34 361,34 362,28 275,27" fill="#99E699" stroke="black" stroke-width="1"/>
    <text x="318.5" y="30.5" font-family="Arial" font-size="6" fill="black" text-anchor="middle">BARBEARIA CENTRAL</text>
    <polygon points="237,430 259,430 259,439 237,439" fill="#99C2E6" stroke="black" stroke-width="1"/>
    <text x="248.0" y="434.5" font-family="Arial" font-size="6" fill="black" text-anchor="middle">BISCOITOS DA ANA</text>
    <polygon points="346,234 327,234 327,223 346,223" fill="#E699C2" stroke="black" stroke-width="1"/>
    <text x="336.5" y="228.5" font-family="Arial" font-size="6" fill="black" text-anchor="middle">LEGUMES ADRIANO</text>
    <polygon points="48,481 68,481 74,504 48,515" fill="#C2E699" stroke="black" stroke-width="1"/>
    <text x="60.25" y="498.25" font-family="Arial" font-size="6" fill="black" text-anchor="middle">MIMO PRESENTES</text>
    <polygon points="48.998,405.051 48.998,432.218 68.115,432.218 68.115,405.051" fill="#99E699" stroke="black" stroke-width="1"/>
    <text x="58.556" y="418.634" font-family="Arial" font-size="6" fill="black" text-anchor="middle">RESTAURANTE JORGE AMERICANO anexo</text>
    <polygon points="399,53 410,53 410,34 399,34" fill="#99C2E6" stroke="black" stroke-width="1"/>
    <text x="404.5" y="43.5" font-family="Arial" font-size="6" fill="black" text-anchor="middle">MULTIART</text>
    <polygon points="68.897,324.615 48.771,324.615 48.771,313.569 68.897,313.569" fill="#E699C2" stroke="black" stroke-width="1"/>
    <text x="58.834" y="319.092" font-family="Arial" font-size="6" fill="black" text-anchor="middle">RM COUROS</text>
    <polygon points="555.264,432.025 536.059,432.025 536.059,415.13 555.264,415.13" fill="#C2E699" stroke="black" stroke-width="1"/>
    <text x="545.661" y="423.578" font-family="Arial" font-size="6" fill="black" text-anchor="middle">CACAU SHOW</text>
  </svg>