<?xml version="1.0" encoding="UTF-8" standalone="no"?>
<svg
   width="600"
   height="600"
   viewBox="0 0 600 600"
   version="1.1"
   id="svg168"
   sodipodi:docname="mercado_central.svg"
   inkscape:version="1.2.2 (b0a8486541, 2022-12-01)"
   xmlns:inkscape="http://www.inkscape.org/namespaces/inkscape"
   xmlns:sodipodi="http://sodipodi.sourceforge.net/DTD/sodipodi-0.dtd"
   xmlns="http://www.w3.org/2000/svg"
   xmlns:svg="http://www.w3.org/2000/svg">
  <defs
     id="defs172" />
  <sodipodi:namedview
     id="namedview170"
     pagecolor="#ffffff"
     bordercolor="#666666"
     borderopacity="1.0"
     inkscape:showpageshadow="2"
     inkscape:pageopacity="0.0"
     inkscape:pagecheckerboard="0"
     inkscape:deskcolor="#d1d1d1"
     showgrid="false"
     inkscape:zoom="1.3216667"
     inkscape:cx="262.16898"
     inkscape:cy="300.75662"
     inkscape:window-width="1920"
     inkscape:window-height="1003"
     inkscape:window-x="0"
     inkscape:window-y="0"
     inkscape:window-maximized="1"
     inkscape:current-layer="svg168" />
  <polygon
     points="178,405 172,410 164,389 164,384 172,384 173,389"
     fill="#FFADAD"
     stroke="black"
     stroke-width="1"
     id="polygon2" />
  <polygon
     points="590.153,230.781 572.991,230.781 572.991,210.899 590.153,210.899"
     fill="#FFD6A5"
     stroke="black"
     stroke-width="1"
     id="polygon4" />
  <polygon
     points="68.897,352.615 48.771,352.615 48.771,341.569 68.897,341.569"
     fill="#FDFFB6"
     stroke="black"
     stroke-width="1"
     id="polygon6" />
  <polygon
     points="476.481,118.194 460.577,118.194 460.577,88.194 441.577,88.194 441.577,69.649 476.481,69.649"
     fill="#CAFFBF"
     stroke="black"
     stroke-width="1"
     id="polygon8" />
  <polygon
     points="486.68,324.356 476.272,324.356 476.272,294.265 486.68,294.265"
     fill="#9BF6FF"
     stroke="black"
     stroke-width="1"
     id="polygon10" />
  <polygon
     points="400.457,155.734 372.439,155.734 372.439,147.327 400.457,147.327"
     fill="#A0C4FF"
     stroke="black"
     stroke-width="1"
     id="polygon12" />
  <polygon
     points="346,234 357,234 357,223 346,223"
     fill="#BDB2FF"
     stroke="black"
     stroke-width="1"
     id="polygon14" />
  <polygon
     points="250,524 250,540 235,540 235,524"
     fill="#FFC6FF"
     stroke="black"
     stroke-width="1"
     id="polygon16" />
  <polygon
     points="226,190 209,174 226,174"
     fill="#FFFFFC"
     stroke="black"
     stroke-width="1"
     id="polygon18" />
  <polygon
     points="68.897,353.615 48.771,353.615 48.771,366.569 68.897,366.569"
     fill="#E6A7A7"
     stroke="black"
     stroke-width="1"
     id="polygon20" />
  <polygon
     points="276,34 361,34 362,28 275,27"
     fill="#E6CC8A"
     stroke="black"
     stroke-width="1"
     id="polygon22" />
  <polygon
     points="276,34 361,34 362,28 275,27"
     fill="#E6E099"
     stroke="black"
     stroke-width="1"
     id="polygon24" />
  <polygon
     points="433,214 418,214 418,232 433,232"
     fill="#B3E699"
     stroke="black"
     stroke-width="1"
     id="polygon26" />
  <polygon
     points="268.363,353.514 288.923,353.514 288.923,342.347 268.363,342.347"
     fill="#8ACCEC"
     stroke="black"
     stroke-width="1"
     id="polygon28" />
  <polygon
     points="296.375,245.325 312.986,245.325 312.986,234.572 296.375,234.572"
     fill="#8AB3E6"
     stroke="black"
     stroke-width="1"
     id="polygon30" />
  <polygon
     points="85.484,208.232 102.233,208.232 102.233,223.568 85.484,223.568"
     fill="#B38AE6"
     stroke="black"
     stroke-width="1"
     id="polygon32">
    <title
       id="title455">Bar da Lora</title>
  </polygon>
  <polygon
     points="118.048,414.748 118.048,406.218 134.766,406.218 134.766,414.748"
     fill="#E68AB3"
     stroke="black"
     stroke-width="1"
     id="polygon34" />
  <polygon
     points="102.884,347.293 85.233,347.293 85.238,356.87 102.884,356.870"
     fill="#99E6E6"
     stroke="black"
     stroke-width="1"
     id="polygon36" />
  <polygon
     points="102.884,368.085 85.233,368.085 85.233,394.354 102.884,394.354"
     fill="#E6D399"
     stroke="black"
     stroke-width="1"
     id="polygon38" />
  <polygon
     points="570,536 564,541 555,541 555,522"
     fill="#E6B399"
     stroke="black"
     stroke-width="1"
     id="polygon40" />
  <polygon
     points="349,457 349,487 346,487 346,498 337,498 337,457"
     fill="#CC99E6"
     stroke="black"
     stroke-width="1"
     id="polygon42" />
  <polygon
     points="555.264,415.025 536.059,415.025 536.059,406.13 555.264,406.13"
     fill="#99E699"
     stroke="black"
     stroke-width="1"
     id="polygon44" />
  <polygon
     points="555.264,308 545.264,308 545.264,299 523.024,299.523 523.024,321.013 555.264,321.013"
     fill="#99CCF0"
     stroke="black"
     stroke-width="1"
     id="polygon46" />
  <polygon
     points="486.876,358.605 466.468,358.605 466.468,348.665 486.876,348.665"
     fill="#F099CC"
     stroke="black"
     stroke-width="1"
     id="polygon48" />
  <polygon
     points="365,234 358,234 358,223 365,223"
     fill="#CC9999"
     stroke="black"
     stroke-width="1"
     id="polygon50" />
  <polygon
     points="353,245 327,245 327,235 353,235"
     fill="#99E6C2"
     stroke="black"
     stroke-width="1"
     id="polygon52" />
  <polygon
     points="461.851,171.594 465.543,177.808 484.105,171.564 475.68,157.59"
     fill="#C299E6"
     stroke="black"
     stroke-width="1"
     id="polygon54" />
  <polygon
     points="385,295 401,295 401,308 385,308"
     fill="#E6C299"
     stroke="black"
     stroke-width="1"
     id="polygon56" />
  <polygon
     points="385,309 401,309 401,318 385,318 370,318 370,295 385,295"
     fill="#99C2E6"
     stroke="black"
     stroke-width="1"
     id="polygon58" />
  <polygon
     points="355,206 345,206 345,191 355,191"
     fill="#E699C2"
     stroke="black"
     stroke-width="1"
     id="polygon60" />
  <polygon
     points="348,386 327,386 327,371 348,371"
     fill="#C2E699"
     stroke="black"
     stroke-width="1"
     id="polygon62" />
  <polygon
     points="327,342 356,342 356,330 327,330"
     fill="#99E699"
     stroke="black"
     stroke-width="1"
     id="polygon64" />
  <polygon
     points="367,386 349,386 349,371 367,371"
     fill="#99C2E6"
     stroke="black"
     stroke-width="1"
     id="polygon66" />
  <polygon
     points="507.252,488.683 507.252,505.261 513.16,505.261 513.16,488.683"
     fill="#E699C2"
     stroke="black"
     stroke-width="1"
     id="polygon68" />
  <polygon
     points="435,430 427,430 427,438 435,439 452,436 448,427"
     fill="#C2E699"
     stroke="black"
     stroke-width="1"
     id="polygon70" />
  <polygon
     points="409,429 403,429 403,420 409,420"
     fill="#99E699"
     stroke="black"
     stroke-width="1"
     id="polygon72" />
  <polygon
     points="349,430 329,430 329,439 349,439"
     fill="#99C2E6"
     stroke="black"
     stroke-width="1"
     id="polygon74" />
  <polygon
     points="301,429 295,429 295,420 301,420"
     fill="#E699C2"
     stroke="black"
     stroke-width="1"
     id="polygon76" />
  <polygon
     points="294,429 278,429 278,420 294,420"
     fill="#C2E699"
     stroke="black"
     stroke-width="1"
     id="polygon78" />
  <polygon
     points="277,429 262,429 262,420 277,420"
     fill="#99E699"
     stroke="black"
     stroke-width="1"
     id="polygon80" />
  <polygon
     points="548.755,387.702 555.714,387.702 555.714,360.271 548.755,360.271"
     fill="#99C2E6"
     stroke="black"
     stroke-width="1"
     id="polygon82" />
  <polygon
     points="521.743,226.557 506.927,226.557 506.927,212.522 521.743,212.522"
     fill="#E699C2"
     stroke="black"
     stroke-width="1"
     id="polygon84" />
  <polygon
     points="557.264,118.878 542.711,118.878 542.711,135.365 557.264,135.365"
     fill="#C2E699"
     stroke="black"
     stroke-width="1"
     id="polygon86" />
  <polygon
     points="522.591,321.215 505.341,321.215 505.341,298.506 522.591,298.506"
     fill="#99E699"
     stroke="black"
     stroke-width="1"
     id="polygon88" />
  <polygon
     points="536.618,293.127 506.608,293.127 506.608,298.435 536.618,298.435"
     fill="#99C2E6"
     stroke="black"
     stroke-width="1"
     id="polygon90" />
  <polygon
     points="523,170 523,239 555,239 555,172 536,172 536,154 523,154"
     fill="#E699C2"
     stroke="black"
     stroke-width="1"
     id="polygon92" />
  <polygon
     points="248,70 260,70 260,86 248,87"
     fill="#C2E699"
     stroke="black"
     stroke-width="1"
     id="polygon94" />
  <polygon
     points="235.675,87.89 225.222,87.89 225.222,70.466 235.675,70.466"
     fill="#99E699"
     stroke="black"
     stroke-width="1"
     id="polygon96" />
  <polygon
     points="207.002,87.452 179.54,87.452 179.54,69.028 207.002,69.028"
     fill="#99C2E6"
     stroke="black"
     stroke-width="1"
     id="polygon98" />
  <polygon
     points="179.366,87.89 155.859,87.89 155.859,69.466 179.366,69.466"
     fill="#E699C2"
     stroke="black"
     stroke-width="1"
     id="polygon100" />
  <polygon
     points="556.998,87.531 509.165,87.531 509.165,69.649 557.198,69.649"
     fill="#C2E699"
     stroke="black"
     stroke-width="1"
     id="polygon102" />
  <polygon
     points="261,70 270,70 270,86 261,87"
     fill="#99E699"
     stroke="black"
     stroke-width="1"
     id="polygon104" />
  <polygon
     points="489,540 480,540 480,524 489,524"
     fill="#99C2E6"
     stroke="black"
     stroke-width="1"
     id="polygon106" />
  <polygon
     points="205.062,136.643 205.062,145.734 193.896,146.734 191.941,137.327"
     fill="#E699C2"
     stroke="black"
     stroke-width="1"
     id="polygon108" />
  <polygon
     points="367,524 367,540 392,540 392,524"
     fill="#C2E699"
     stroke="black"
     stroke-width="1"
     id="polygon110" />
  <polygon
     points="118.048,391.748 118.048,406.218 134.766,406.218 134.766,391.748"
     fill="#99E699"
     stroke="black"
     stroke-width="1"
     id="polygon112" />
  <polygon
     points="262,402 227,402 227,371 262,371"
     fill="#99C2E6"
     stroke="black"
     stroke-width="1"
     id="polygon114" />
  <polygon
     points="395,402 378,402 378,371 395,371"
     fill="#E699C2"
     stroke="black"
     stroke-width="1"
     id="polygon116" />
  <polygon
     points="428,281 418,281 418,259 428,259"
     fill="#C2E699"
     stroke="black"
     stroke-width="1"
     id="polygon118" />
  <polygon
     points="271,270 313,270 313,282 271,282"
     fill="#99E699"
     stroke="black"
     stroke-width="1"
     id="polygon120" />
  <polygon
     points="85.484,264.632 91.233,264.632 91.233,253.568 85.484,253.568"
     fill="#99C2E6"
     stroke="black"
     stroke-width="1"
     id="polygon122" />
  <polygon
     points="413,402 397,402 397,371 413,371"
     fill="#E699C2"
     stroke="black"
     stroke-width="1"
     id="polygon124" />
  <polygon
     points="344,206 327,206 327,189 344,189"
     fill="#C2E699"
     stroke="black"
     stroke-width="1"
     id="polygon126" />
  <polygon
     points="68.05,120.076 48.845,120.076 48.845,148.207 68.05,148.207"
     fill="#99E699"
     stroke="black"
     stroke-width="1"
     id="polygon128" />
  <polygon
     points="342.117,53.000 374.589,53.000 374.589,34.446 342.117,34.446"
     fill="#99C2E6"
     stroke="black"
     stroke-width="1"
     id="polygon130" />
  <polygon
     points="575,64 575,68 568,68 568,62 580,50 590,60 582,60 582,65"
     fill="#E699C2"
     stroke="black"
     stroke-width="1"
     id="polygon132" />
  <polygon
     points="544.242,53.000 522.662,53.000 522.662,34.446 544.242,34.446"
     fill="#C2E699"
     stroke="black"
     stroke-width="1"
     id="polygon134" />
  <polygon
     points="358,420 358,424 373,424 373,420"
     fill="#99E699"
     stroke="black"
     stroke-width="1"
     id="polygon136" />
  <polygon
     points="222,264 201,264 201,259 222,259"
     fill="#99C2E6"
     stroke="black"
     stroke-width="1"
     id="polygon138" />
  <polygon
     points="63,529 79,509 75,504 48,515"
     fill="#E699C2"
     stroke="black"
     stroke-width="1"
     id="polygon140" />
  <polygon
     points="401,343 388,343 388,353 401,353"
     fill="#C2E699"
     stroke="black"
     stroke-width="1"
     id="polygon142" />
  <polygon
     points="229.963,53.000 139.818,53.000 139.818,34.446 229.963,34.446"
     fill="#99E699"
     stroke="black"
     stroke-width="1"
     id="polygon144" />
  <polygon
     points="378,206 396,206 396,191 378,191"
     fill="#99C2E6"
     stroke="black"
     stroke-width="1"
     id="polygon146" />
  <polygon
     points="68.897,354.015 48.771,354.015 48.771,325.569 68.897,325.569"
     fill="#E699C2"
     stroke="black"
     stroke-width="1"
     id="polygon148" />
  <polygon
     points="68.897,340.615 48.771,340.615 48.771,325.569 68.897,325.569"
     fill="#C2E699"
     stroke="black"
     stroke-width="1"
     id="polygon150" />
  <polygon
     points="276,34 361,34 362,28 275,27"
     fill="#99E699"
     stroke="black"
     stroke-width="1"
     id="polygon152" />
  <polygon
     points="237,430 259,430 259,439 237,439"
     fill="#99C2E6"
     stroke="black"
     stroke-width="1"
     id="polygon154" />
  <polygon
     points="346,234 327,234 327,223 346,223"
     fill="#E699C2"
     stroke="black"
     stroke-width="1"
     id="polygon156" />
  <polygon
     points="48,481 68,481 74,504 48,515"
     fill="#C2E699"
     stroke="black"
     stroke-width="1"
     id="polygon158" />
  <polygon
     points="48.998,405.051 48.998,432.218 68.115,432.218 68.115,405.051"
     fill="#99E699"
     stroke="black"
     stroke-width="1"
     id="polygon160" />
  <polygon
     points="399,53 410,53 410,34 399,34"
     fill="#99C2E6"
     stroke="black"
     stroke-width="1"
     id="polygon162" />
  <polygon
     points="68.897,324.615 48.771,324.615 48.771,313.569 68.897,313.569"
     fill="#E699C2"
     stroke="black"
     stroke-width="1"
     id="polygon164" />
  <polygon
     points="555.264,432.025 536.059,432.025 536.059,415.13 555.264,415.13"
     fill="#C2E699"
     stroke="black"
     stroke-width="1"
     id="polygon166" />
</svg>
