<?xml version="1.0" encoding="UTF-8" standalone="no"?>
<svg
   width="174px"
   height="48px"
   viewBox="0 0 174 48"
   version="1.1"
   id="svg56"
   sodipodi:docname="Weitzman-School-Design.svg"
   inkscape:version="1.2.2 (b0a8486541, 2022-12-01)"
   xmlns:inkscape="http://www.inkscape.org/namespaces/inkscape"
   xmlns:sodipodi="http://sodipodi.sourceforge.net/DTD/sodipodi-0.dtd"
   xmlns="http://www.w3.org/2000/svg"
   xmlns:svg="http://www.w3.org/2000/svg">
  <defs
     id="defs60" />
  <sodipodi:namedview
     id="namedview58"
     pagecolor="#ffffff"
     bordercolor="#666666"
     borderopacity="1.0"
     inkscape:showpageshadow="2"
     inkscape:pageopacity="0.0"
     inkscape:pagecheckerboard="0"
     inkscape:deskcolor="#d1d1d1"
     showgrid="false"
     inkscape:zoom="4.4856322"
     inkscape:cx="110.24087"
     inkscape:cy="16.162716"
     inkscape:window-width="1920"
     inkscape:window-height="1003"
     inkscape:window-x="0"
     inkscape:window-y="0"
     inkscape:window-maximized="1"
     inkscape:current-layer="svg56" />
  <title
     id="title48">Weitzman School of Design Logo</title>
  <g
     id="Page-1"
     stroke="none"
     stroke-width="1"
     fill="none"
     fill-rule="evenodd"
     style="fill:#ffffff"
     data-darkreader-inline-stroke="">
    <g
       id="logo-weitzman-main"
       fill="#FFFFFF"
       fill-rule="nonzero"
       style="fill:#ffffff"
       data-darkreader-inline-fill="">
      <g
         id="shield"
         transform="translate(-0.000142, 0.004473)"
         style="fill:#ffffff">
        <path
           d="M38.0446145,7.85083636 L38.0446145,7.85083636 C38.1049782,7.89810909 38.1678873,7.9472 38.2118873,8.01265454 C38.25916,8.08247272 38.2827963,8.16392727 38.2806145,8.25229091 C38.2827963,8.33701818 38.25916,8.41847272 38.2118873,8.48829091 C38.1678873,8.55374545 38.1049782,8.60247272 38.0446145,8.64974545 C37.9507963,8.7232 37.8620691,8.79265454 37.8620691,8.91265454 L37.8620691,9.64756363 L33.5235236,9.6472 L29.1857054,9.64756363 L29.1857054,8.91265454 C29.1857054,8.79265454 29.0969782,8.7232 29.00316,8.64974545 C28.9424327,8.60247272 28.8798873,8.55374545 28.8358873,8.48829091 C28.7886145,8.41847272 28.7646145,8.33701818 28.7664327,8.24865454 C28.7646145,8.16392727 28.7886145,8.08247272 28.8358873,8.01265454 C28.8798873,7.9472 28.9424327,7.89810909 29.00316,7.85083636 C29.0969782,7.77774545 29.1857054,7.70829091 29.1857054,7.58792727 L29.1857054,5.18974545 C29.1857054,5.06938182 29.0969782,5.00029091 29.00316,4.92683636 C28.9424327,4.87956363 28.8798873,4.83047272 28.8358873,4.76501818 C28.7886145,4.69556363 28.7646145,4.61374545 28.7664327,4.52538182 C28.7646145,4.44101818 28.7886145,4.3592 28.8355236,4.28938182 C28.8798873,4.22392727 28.9453418,4.17265454 29.00316,4.12792727 C29.0969782,4.05447272 29.1857054,3.98538182 29.1857054,3.86501818 L29.1857054,3.10829091 L29.2955236,3.10829091 C29.8027963,3.10792727 30.2478873,3.09665454 30.5577054,2.96429091 C30.6846145,2.91010909 30.8009782,2.83665454 30.9253418,2.75847272 C31.1907963,2.59156363 31.4922509,2.40210909 31.94316,2.40210909 C32.3046145,2.40210909 32.6406145,2.53738182 32.9380691,2.65738182 C33.1482509,2.74174545 33.3464327,2.82138182 33.4944327,2.82138182 L33.5529782,2.82138182 C33.7009782,2.82138182 33.8995236,2.74174545 34.1107963,2.65665454 C34.40716,2.53738182 34.7427963,2.40210909 35.1046145,2.40210909 C35.55516,2.40210909 35.8562509,2.59156363 36.12316,2.7592 C36.2464327,2.83665454 36.36316,2.91010909 36.4897054,2.96429091 C36.7995236,3.09665454 37.2446145,3.10792727 37.7515236,3.10829091 L37.8620691,3.10829091 L37.8620691,3.86501818 C37.8620691,3.98538182 37.9504327,4.05447272 38.0446145,4.12792727 C38.1020691,4.17265454 38.1675236,4.22392727 38.2118873,4.28938182 C38.25916,4.3592 38.2827963,4.44101818 38.2806145,4.52901818 C38.2827963,4.61374545 38.25916,4.69556363 38.2118873,4.76501818 C38.1678873,4.83047272 38.1049782,4.87956363 38.0446145,4.92683636 C37.9507963,5.00029091 37.8620691,5.06938182 37.8620691,5.18974545 L37.8620691,7.58792727 C37.8620691,7.70829091 37.9504327,7.77774545 38.0446145,7.85083636 L38.0446145,7.85083636 Z M27.4064327,9.10465454 C26.7355236,10.1777455 25.4409782,10.4399273 25.38716,10.4504728 C25.1318873,10.4955637 24.8700691,10.5184728 24.6082509,10.5184728 L24.6078873,10.5184728 C23.2555236,10.5184728 22.0057054,9.93010909 20.7380691,9.27483636 C20.5955236,9.20065454 20.4369782,9.11410909 20.2660691,9.02065454 C19.4569782,8.57774545 18.3275236,7.95956363 17.3715236,7.95956363 C17.0937054,7.95956363 16.8300691,8.01156363 16.5937054,8.13592727 L16.5540691,8.15665454 L16.5522509,8.20065454 C16.5457054,8.32574545 16.5217054,8.44392727 16.4809782,8.55301818 C16.3289782,8.96101818 15.8304327,9.39447272 15.5878873,9.5672 C15.0315236,9.9672 14.3478873,10.3762909 13.4955236,10.3762909 C13.3682509,10.3762909 13.2497054,10.3581091 13.1442509,10.3221091 C12.9915236,10.2701091 12.8598873,10.1773818 12.7642509,10.0541091 C12.7173418,9.99410909 12.6780691,9.92574545 12.64716,9.8512 C12.6227963,9.79229091 12.6075236,9.73374545 12.5977054,9.66174545 L12.5915236,9.61192727 L12.54316,9.59738182 C12.2129782,9.49847272 12.0158873,9.28247272 12.0158873,9.0192 C12.0158873,8.82138182 12.1620691,8.64829091 12.3035236,8.48101818 C12.5238873,8.22029091 12.7140691,7.99483636 12.4035236,7.70065454 C12.3744327,7.67301818 12.3406145,7.64792727 12.3078873,7.62356363 C12.2627963,7.59010909 12.2198873,7.55847272 12.1813418,7.51738182 C11.9089782,7.22501818 12.0697054,6.61810909 12.1660691,6.25556363 L12.1762509,6.21629091 C12.2809782,5.81956363 12.4413418,5.40901818 12.6664327,4.96138182 C12.97116,4.3552 13.3395236,3.67229091 13.8555236,3.24029091 C13.8660691,3.23156363 13.87916,3.22792727 13.8926145,3.22974545 C13.9060691,3.23156363 13.9177054,3.2392 13.9249782,3.25047272 C13.9355236,3.26647272 13.9915236,3.35301818 14.0726145,3.48792727 L14.1595236,3.63301818 L14.2133418,3.47265454 C14.3566145,3.04392727 14.5937054,2.76647272 14.9169782,2.64756363 C15.2642509,2.52029091 15.5867963,2.69883636 15.7486145,2.81629091 L15.8166145,2.86610909 L15.8606145,2.79410909 C15.9642509,2.62574545 16.1547963,2.42174545 16.4747963,2.40756363 C16.8253418,2.39192727 17.1122509,2.6312 17.2507963,2.77592727 L17.3013418,2.82829091 L17.3569782,2.78174545 C17.5140691,2.65047272 17.92316,2.35156363 18.3347963,2.4072 C18.7235236,2.45956363 18.8722509,2.79883636 18.9177054,2.94210909 L18.9457054,3.02865454 L19.0267963,2.98829091 C19.2097054,2.89774545 19.5667963,2.77774545 19.9020691,2.99010909 C20.1173418,3.12647272 20.14316,3.35956363 20.1267963,3.53156363 L20.1169782,3.63229091 L20.2173418,3.61556363 C20.4693418,3.57301818 20.9329782,3.54392727 21.2086145,3.82538182 C21.4253418,4.04647272 21.4395236,4.33301818 21.4133418,4.53447272 L21.4006145,4.63338182 L21.4998873,4.62174545 C21.7209782,4.59592727 22.0180691,4.61665454 22.1780691,4.86538182 C22.2867963,5.03338182 22.2446145,5.27156363 22.2093418,5.39810909 L22.1882509,5.47556363 L22.2660691,5.49447272 C22.3947963,5.52574545 22.6209782,5.60610909 22.6882509,5.79047272 C22.7377054,5.92792727 22.7217054,6.15738182 22.6438873,6.41956363 L22.6238873,6.4872 L22.6889782,6.51410909 C22.8009782,6.55992727 23.0049782,6.66901818 23.11516,6.8872 C23.22316,7.10065454 23.2184327,7.36574545 23.1006145,7.67556363 L23.0817054,7.72574545 L23.1217054,7.76138182 C23.4100691,8.01701818 23.7002509,8.25192727 23.9849782,8.45883636 C24.5627963,8.87883636 25.4635236,9.10174545 26.0758873,8.59883636 C26.30716,8.40865454 26.4097054,8.06174545 26.3315236,7.7352 C26.2624327,7.44647272 26.0715236,7.2472 25.8082509,7.18901818 C25.3460691,7.0872 24.97916,7.52647272 24.6817054,7.96974545 C24.6718873,7.98392727 24.65516,7.99156363 24.6380691,7.99010909 C24.6206145,7.98829091 24.6060691,7.97774545 24.59916,7.96174545 C24.3249782,7.30647272 24.3118873,6.7632 24.5595236,6.34610909 C24.7693418,5.99229091 25.1737054,5.74429091 25.6689782,5.66538182 L25.7355236,5.65483636 L25.7344327,5.58756363 C25.7257054,4.81192727 25.9118873,4.24647272 26.2867963,3.90683636 C26.5147963,3.70029091 26.9340691,3.47447272 27.6362509,3.56901818 C27.6504327,3.57083636 27.6635236,3.57956363 27.6707963,3.59229091 C27.6777054,3.60465454 27.6787963,3.62029091 27.6733418,3.63374545 C27.1577054,4.87665454 27.2849782,5.34210909 27.5653418,6.36283636 C27.5900691,6.45265454 27.6155236,6.54647272 27.6424327,6.64538182 C27.9009782,7.61265454 27.8220691,8.43992727 27.4064327,9.10465454 L27.4064327,9.10465454 Z M10.8038873,7.85083636 L10.8038873,7.85083636 C10.8646145,7.89810909 10.92716,7.9472 10.9715236,8.01265454 C11.0184327,8.08247272 11.0424327,8.16392727 11.0402509,8.25229091 C11.0424327,8.33701818 11.0184327,8.41847272 10.9715236,8.48829091 C10.92716,8.55374545 10.8646145,8.60247272 10.8038873,8.64974545 C10.7100691,8.7232 10.6217054,8.79265454 10.6217054,8.91265454 L10.6217054,9.64756363 L6.28315995,9.6472 L1.94497813,9.64756363 L1.94497813,8.91265454 C1.94497813,8.79265454 1.85625086,8.7232 1.76279632,8.64974545 C1.70206904,8.60247272 1.63952359,8.55374545 1.59515995,8.48829091 C1.54825086,8.41847272 1.52388722,8.33701818 1.52606904,8.24865454 C1.52388722,8.16392727 1.54825086,8.08247272 1.59515995,8.01265454 C1.63952359,7.9472 1.70206904,7.89810909 1.76279632,7.85083636 C1.85625086,7.77774545 1.94497813,7.70829091 1.94497813,7.58792727 L1.94497813,5.18974545 C1.94497813,5.06938182 1.85625086,5.00029091 1.76279632,4.92683636 C1.70206904,4.87956363 1.63952359,4.83047272 1.59515995,4.76501818 C1.54825086,4.69556363 1.52388722,4.61374545 1.52606904,4.52538182 C1.52388722,4.44101818 1.54825086,4.3592 1.59515995,4.28938182 C1.63952359,4.22392727 1.7046145,4.17265454 1.76279632,4.12792727 C1.85625086,4.05447272 1.94497813,3.98538182 1.94497813,3.86501818 L1.94497813,3.10829091 L2.05515995,3.10829091 C2.56243268,3.10792727 3.00715995,3.09665454 3.31734177,2.96429091 C3.44388722,2.91010909 3.5606145,2.83665454 3.68497813,2.75847272 C3.95043268,2.59156363 4.25152359,2.40210909 4.70279632,2.40210909 C5.06425086,2.40210909 5.40025086,2.53738182 5.69770541,2.65738182 C5.90752359,2.74174545 6.10606904,2.82138182 6.25406904,2.82138182 L6.31225086,2.82138182 C6.4606145,2.82138182 6.65879632,2.74174545 6.87043268,2.65665454 C7.16643268,2.53738182 7.50243268,2.40210909 7.86388722,2.40210909 C8.31479632,2.40210909 8.61588722,2.59156363 8.88243268,2.7592 C9.00606904,2.83665454 9.12279632,2.91010909 9.24897813,2.96429091 C9.55915995,3.09665454 10.0042509,3.10792727 10.51116,3.10829091 L10.6217054,3.10829091 L10.6217054,3.86501818 C10.6217054,3.98538182 10.7100691,4.05447272 10.8038873,4.12792727 C10.8617054,4.17265454 10.92716,4.22392727 10.9715236,4.28938182 C11.0184327,4.3592 11.0424327,4.44101818 11.0402509,4.52901818 C11.0424327,4.61374545 11.0184327,4.69556363 10.9715236,4.76501818 C10.92716,4.83047272 10.8646145,4.87956363 10.8038873,4.92683636 C10.7100691,5.00029091 10.6217054,5.06938182 10.6217054,5.18974545 L10.6217054,7.58792727 C10.6217054,7.70829091 10.7100691,7.77774545 10.8038873,7.85083636 L10.8038873,7.85083636 Z M0.260614493,0.305018182 C0.260614493,0.305018182 0.315159948,12.2912 0.258069039,12.2337455 L39.5489782,12.2341091 L39.5489782,0.305018182 L0.260614493,0.305018182 Z"
           id="Fill-1"
           style="fill:#ffffff" />
        <path
           d="M39.2545054,0.552727273 L0.552323584,0.552727273 C0.552323584,1.82036363 0.552323584,7.2 0.553050857,11.9578182 L39.2545054,11.9578182 C39.2545054,7.2 39.2545054,1.82036363 39.2545054,0.552727273 L39.2545054,0.552727273 Z M39.2547031,19.8447273 C39.2541418,19.7367273 39.2541418,16.3989091 39.2541418,12.5101818 L0.553050857,12.5101818 C0.553050857,16.3989091 0.553050857,19.7367273 0.552476504,19.8447273 C0.541414493,23.528 1.42723268,26.7767273 2.75814177,29.5763637 L19.9035963,13.0396364 L37.0494145,29.5763637 C38.3803236,26.7767273 39.2654145,23.528 39.2547031,19.8447273 L39.2547031,19.8447273 Z M31.5752327,26.48 C30.24396,25.1483637 28.0850509,25.1483637 26.7537782,26.48 C25.4225054,27.8112728 25.4225054,29.9698182 26.7537782,31.3014546 C28.0850509,32.6327273 30.24396,32.6327273 31.5752327,31.3014546 C32.9068691,29.9698182 32.9068691,27.8112728 31.5752327,26.48 L31.5752327,26.48 Z M19.9035963,23.8414546 C21.7861418,23.8414546 23.3123236,22.3152728 23.3123236,20.4327273 C23.3123236,18.5501818 21.7861418,17.024 19.9035963,17.024 C18.0210509,17.024 16.4948691,18.5501818 16.4948691,20.4327273 C16.4948691,22.3152728 18.0210509,23.8414546 19.9035963,23.8414546 L19.9035963,23.8414546 Z M30.8934145,37.8989091 L19.9035963,26.2312728 L8.91377813,37.8989091 C9.02723268,38.0065455 9.13995995,38.1127273 9.25159632,38.2163637 C13.8548691,42.4843637 18.6257782,44.6349091 19.9035963,44.9578182 C21.1814145,44.6349091 25.9523236,42.4843637 30.5555963,38.2163637 C30.6675963,38.1127273 30.77996,38.0065455 30.8934145,37.8989091 L30.8934145,37.8989091 Z M13.0534145,31.3014546 C14.3846873,29.9698182 14.3846873,27.8112728 13.0534145,26.48 C11.7221418,25.1483637 9.56359632,25.1483637 8.23159632,26.48 C6.90032359,27.8112728 6.90032359,29.9698182 8.23159632,31.3014546 C9.56359632,32.6327273 11.7221418,32.6327273 13.0534145,31.3014546 L13.0534145,31.3014546 Z M39.8073385,19.8432728 C39.8334145,28.5374546 34.9948691,34.8541818 30.9312327,38.6214546 C26.5010509,42.7290909 21.5115963,45.1749091 19.94396,45.5163637 L19.9035963,45.5250909 L19.8632327,45.5163637 C18.2955963,45.1749091 13.3065054,42.7290909 8.87595995,38.6214546 C4.81232359,34.8541818 -0.0262218703,28.5374546 0.000106981441,19.8432728 C0.001050857,19.5825455 0.000106981441,0 0.000106981441,0 L39.8073385,0 C39.8073385,0 39.8065054,19.5825455 39.8073385,19.8432728 L39.8073385,19.8432728 Z M29.3505054,5.18945454 L29.3505054,7.588 C29.3505054,7.78909091 29.2141418,7.89527272 29.1046873,7.98109091 C29.0515963,8.02218182 29.0021418,8.06109091 28.9726873,8.10509091 C28.94396,8.14727272 28.9301418,8.19527272 28.9315963,8.24690909 L28.9315963,8.25054545 L28.9315963,8.25418182 C28.9301418,8.30581818 28.94396,8.35345454 28.9726873,8.396 C29.0021418,8.43963636 29.0515963,8.47854545 29.1046873,8.52 C29.2141418,8.60545454 29.3505054,8.712 29.3505054,8.91272727 L29.3505054,9.44690909 L33.5225054,9.44690909 L33.5250509,9.44690909 L37.6970509,9.44690909 L37.6970509,8.91272727 C37.6970509,8.712 37.8334145,8.60545454 37.9432327,8.52 C37.9955963,8.47854545 38.0457782,8.43963636 38.0752327,8.396 C38.1035963,8.35345454 38.1174145,8.30581818 38.11596,8.25418182 L38.1155963,8.25054545 L38.11596,8.24690909 C38.1174145,8.19527272 38.1035963,8.14727272 38.0752327,8.10509091 C38.0457782,8.06109091 37.9955963,8.02218182 37.9432327,7.98109091 C37.8334145,7.89527272 37.6970509,7.78909091 37.6970509,7.588 L37.6970509,5.18945454 C37.6970509,4.98872727 37.8334145,4.88218182 37.9432327,4.79672727 C37.9955963,4.75563636 38.0457782,4.71672727 38.0752327,4.67309091 C38.1035963,4.63018182 38.1174145,4.58290909 38.11596,4.53090909 L38.1155963,4.52727272 L38.11596,4.52363636 C38.1174145,4.472 38.1035963,4.424 38.0752327,4.38181818 C38.0457782,4.33818182 37.9955963,4.29890909 37.9432327,4.25781818 C37.8334145,4.17236363 37.6970509,4.06581818 37.6970509,3.86509091 L37.6970509,3.30836363 L37.6792327,3.30836363 C37.4628691,3.30836363 37.2526873,3.30654545 37.0534145,3.28981818 L37.0534145,8.80290909 L34.0155963,8.80290909 C33.9581418,9.02036363 33.7603236,9.18109091 33.5250509,9.18109091 C33.2897782,9.18109091 33.09196,9.02036363 33.0345054,8.80290909 L29.9963236,8.80290909 L29.9963236,3.28981818 C29.7966873,3.30654545 29.5854145,3.30836363 29.3683236,3.30836363 L29.3505054,3.30836363 L29.3505054,3.86509091 C29.3505054,4.06581818 29.2141418,4.17236363 29.1046873,4.25781818 C29.0515963,4.29890909 29.0021418,4.33818182 28.9726873,4.38181818 C28.94396,4.424 28.9301418,4.472 28.9315963,4.52363636 L28.9315963,4.52727272 L28.9315963,4.53090909 C28.9301418,4.58290909 28.94396,4.63018182 28.9726873,4.67309091 C29.0021418,4.71672727 29.0515963,4.75563636 29.1046873,4.79672727 C29.2141418,4.88218182 29.3505054,4.98872727 29.3505054,5.18945454 L29.3505054,5.18945454 Z M30.2690509,8.348 C30.4774145,8.31563636 30.7050509,8.31490909 30.94396,8.31418182 C31.3097782,8.31309091 31.6883236,8.31163636 32.0523236,8.20145454 C32.1763236,8.16363636 32.3014145,8.124 32.4235963,8.08509091 C32.8014145,7.96436363 33.1308691,7.85927272 33.3635963,7.83818182 C33.3723236,7.83672727 33.3821418,7.83563636 33.39196,7.83454545 L33.39196,3.01345454 C33.2323236,2.99090909 33.0585054,2.92145454 32.8621418,2.84218182 C32.5825054,2.72981818 32.2654145,2.60218182 31.9432327,2.60218182 C31.5497782,2.60218182 31.2981418,2.76072727 31.0315963,2.92836363 C30.9065054,3.00690909 30.7774145,3.088 30.6366873,3.148 C30.5217782,3.19709091 30.3988691,3.23090909 30.2690509,3.25454545 L30.2690509,8.348 Z M33.6715963,7.83636363 C33.6766873,7.83672727 33.6821418,7.83745454 33.6861418,7.83818182 C33.9188691,7.85927272 34.2483236,7.96436363 34.6261418,8.08509091 C34.7483236,8.124 34.8734145,8.16363636 34.9974145,8.20145454 C35.3617782,8.31163636 35.73996,8.31309091 36.1057782,8.31418182 C36.3450509,8.31490909 36.5723236,8.31563636 36.7806873,8.348 L36.7806873,3.25490909 C36.6501418,3.23127272 36.5261418,3.19745454 36.4112327,3.148 C36.2701418,3.088 36.1406873,3.00690909 36.0163236,2.92836363 C35.7494145,2.76072727 35.4977782,2.60218182 35.1046873,2.60218182 C34.7817782,2.60218182 34.4650509,2.72981818 34.1854145,2.84218182 C33.99596,2.91854545 33.8268691,2.98581818 33.6715963,3.01090909 L33.6715963,7.83636363 Z M29.1057782,7.588 L29.1057782,5.18945454 C29.1057782,5.112 29.0508691,5.06545454 28.9541418,4.98945454 C28.8915963,4.94072727 28.8210509,4.88581818 28.7697782,4.80981818 C28.7134145,4.72618182 28.6846873,4.62836363 28.6868691,4.52727272 C28.6846873,4.42581818 28.7134145,4.32836363 28.7697782,4.24472727 C28.8210509,4.16909091 28.8915963,4.11381818 28.9541418,4.06509091 C29.0508691,3.98945454 29.1057782,3.94254545 29.1057782,3.86509091 L29.1057782,3.02836363 L29.2955963,3.02836363 C29.7403236,3.028 30.2170509,3.02327272 30.5265054,2.89090909 C30.6475963,2.83927272 30.7617782,2.76763636 30.8825054,2.69127272 C31.1574145,2.51854545 31.4690509,2.32254545 31.9432327,2.32254545 C32.31996,2.32254545 32.6632327,2.46072727 32.9665054,2.58290909 C33.1697782,2.66472727 33.3617782,2.74181818 33.4945054,2.74181818 L33.5225054,2.74181818 L33.5250509,2.74181818 L33.5530509,2.74181818 C33.6861418,2.74181818 33.8777782,2.66472727 34.0806873,2.58290909 C34.38396,2.46072727 34.72796,2.32254545 35.1046873,2.32254545 C35.5785054,2.32254545 35.8901418,2.51854545 36.1650509,2.69127272 C36.2861418,2.76763636 36.39996,2.83927272 36.5206873,2.89090909 C36.8305054,3.02327272 37.3072327,3.028 37.7515963,3.02836363 L37.9417782,3.02836363 L37.9417782,3.86509091 C37.9417782,3.94254545 37.9966873,3.98945454 38.0937782,4.06509091 C38.15596,4.11381818 38.2268691,4.16909091 38.2777782,4.24472727 C38.3345054,4.32836363 38.3628691,4.42581818 38.3606873,4.52727272 C38.3628691,4.62836363 38.3345054,4.72618182 38.2777782,4.80981818 C38.2268691,4.88581818 38.15596,4.94072727 38.0937782,4.98945454 C37.9966873,5.06545454 37.9417782,5.112 37.9417782,5.18945454 L37.9417782,7.588 C37.9417782,7.66581818 37.9966873,7.71236363 38.0937782,7.788 C38.15596,7.83709091 38.2268691,7.89236363 38.2777782,7.968 C38.3345054,8.05163636 38.3628691,8.14909091 38.3606873,8.25054545 C38.3628691,8.35163636 38.3345054,8.44909091 38.2777782,8.53272727 C38.2268691,8.60872727 38.15596,8.664 38.0937782,8.71272727 C37.9966873,8.78836363 37.9417782,8.83527272 37.9417782,8.91272727 L37.9417782,9.716 L37.94796,9.72690909 L37.9417782,9.72690909 L37.9417782,9.72727272 L33.5235963,9.72690909 L29.1057782,9.72727272 L29.1057782,9.72690909 L29.0995963,9.72690909 L29.1057782,9.716 L29.1057782,8.91272727 C29.1057782,8.83527272 29.0508691,8.78836363 28.9541418,8.71272727 C28.8915963,8.664 28.8210509,8.60872727 28.7697782,8.53272727 C28.7134145,8.44909091 28.6846873,8.35163636 28.6868691,8.25054545 C28.6846873,8.14909091 28.7134145,8.05163636 28.7697782,7.968 C28.8210509,7.89236363 28.8915963,7.83709091 28.9541418,7.788 C29.0508691,7.71236363 29.1057782,7.66581818 29.1057782,7.588 L29.1057782,7.588 Z M2.11014177,5.18945454 L2.11014177,7.588 C2.11014177,7.78909091 1.97377813,7.89527272 1.86432359,7.98109091 C1.81123268,8.02218182 1.76177813,8.06109091 1.73195995,8.10509091 C1.70323268,8.14727272 1.6894145,8.19527272 1.69123268,8.24690909 L1.69123268,8.25054545 L1.69123268,8.25418182 C1.6894145,8.30581818 1.70323268,8.35345454 1.73195995,8.396 C1.76177813,8.43963636 1.81123268,8.47854545 1.86432359,8.52 C1.97377813,8.60545454 2.11014177,8.712 2.11014177,8.91272727 L2.11014177,9.44690909 L6.28214177,9.44690909 L6.28432359,9.44690909 L10.4566873,9.44690909 L10.4566873,8.91272727 C10.4566873,8.712 10.5930509,8.60545454 10.7021418,8.52 C10.7552327,8.47854545 10.8050509,8.43963636 10.8345054,8.396 C10.8632327,8.35345454 10.8770509,8.30581818 10.8752327,8.25418182 L10.8752327,8.25054545 L10.8752327,8.24690909 C10.8770509,8.19527272 10.8632327,8.14727272 10.8345054,8.10509091 C10.8050509,8.06109091 10.7552327,8.02218182 10.7021418,7.98109091 C10.5930509,7.89527272 10.4566873,7.78909091 10.4566873,7.588 L10.4566873,5.18945454 C10.4566873,4.98872727 10.5930509,4.88218182 10.7021418,4.79672727 C10.7552327,4.75563636 10.8050509,4.71672727 10.8345054,4.67309091 C10.8632327,4.63018182 10.8770509,4.58290909 10.8752327,4.53090909 L10.8752327,4.52727272 L10.8752327,4.52363636 C10.8770509,4.472 10.8632327,4.424 10.8345054,4.38181818 C10.8050509,4.33818182 10.7552327,4.29890909 10.7021418,4.25781818 C10.5930509,4.17236363 10.4566873,4.06581818 10.4566873,3.86509091 L10.4566873,3.30836363 L10.4388691,3.30836363 C10.2225054,3.30836363 10.01196,3.30654545 9.81305086,3.28981818 L9.81305086,8.80290909 L6.77523268,8.80290909 C6.7174145,9.02036363 6.51959632,9.18109091 6.28432359,9.18109091 C6.0494145,9.18109091 5.85159632,9.02036363 5.7934145,8.80290909 L2.75595995,8.80290909 L2.75595995,3.28981818 C2.55595995,3.30654545 2.34505086,3.30836363 2.12759632,3.30836363 L2.11014177,3.30836363 L2.11014177,3.86509091 C2.11014177,4.06581818 1.97377813,4.17236363 1.86432359,4.25781818 C1.81123268,4.29890909 1.76177813,4.33818182 1.73195995,4.38181818 C1.70323268,4.424 1.6894145,4.472 1.69123268,4.52363636 L1.69123268,4.52727272 L1.69123268,4.53090909 C1.6894145,4.58290909 1.70323268,4.63018182 1.73195995,4.67309091 C1.76177813,4.71672727 1.81123268,4.75563636 1.86432359,4.79672727 C1.97377813,4.88218182 2.11014177,4.98872727 2.11014177,5.18945454 L2.11014177,5.18945454 Z M3.02868722,8.348 C3.23705086,8.31563636 3.46432359,8.31490909 3.70359632,8.31418182 C4.0694145,8.31309091 4.44759632,8.31163636 4.81195995,8.20145454 C4.93595995,8.16363636 5.06105086,8.124 5.18323268,8.08509091 C5.56105086,7.96436363 5.89050541,7.85927272 6.12323268,7.83818182 C6.13159632,7.83672727 6.1414145,7.83563636 6.15159632,7.83454545 L6.15159632,3.01345454 C5.99195995,2.99090909 5.81814177,2.92145454 5.62177813,2.84218182 C5.34177813,2.72981818 5.02505086,2.60218182 4.70250541,2.60218182 C4.30905086,2.60218182 4.0574145,2.76072727 3.79123268,2.92836363 C3.66614177,3.00690909 3.53705086,3.088 3.39595995,3.148 C3.2814145,3.19709091 3.15850541,3.23090909 3.02868722,3.25454545 L3.02868722,8.348 Z M6.43123268,7.83636363 C6.43595995,7.83672727 6.4414145,7.83745454 6.44577813,7.83818182 C6.67850541,7.85927272 7.00795995,7.96436363 7.38577813,8.08509091 C7.50795995,8.124 7.63305086,8.16363636 7.75705086,8.20145454 C8.12105086,8.31163636 8.49959632,8.31309091 8.8654145,8.31418182 C9.10432359,8.31490909 9.33195995,8.31563636 9.54032359,8.348 L9.54032359,3.25490909 C9.40977813,3.23127272 9.28577813,3.19745454 9.17086904,3.148 C9.0294145,3.088 8.90032359,3.00690909 8.77559632,2.92836363 C8.50905086,2.76072727 8.2574145,2.60218182 7.86395995,2.60218182 C7.5414145,2.60218182 7.22468722,2.72981818 6.94468722,2.84218182 C6.75523268,2.91854545 6.58650541,2.98581818 6.43123268,3.01090909 L6.43123268,7.83636363 Z M1.8654145,7.588 L1.8654145,5.18945454 C1.8654145,5.112 1.81014177,5.06545454 1.7134145,4.98945454 C1.65123268,4.94072727 1.58032359,4.88581818 1.52905086,4.80981818 C1.47268722,4.72618182 1.44395995,4.62836363 1.44650541,4.52727272 C1.44395995,4.42581818 1.47305086,4.32836363 1.52905086,4.24472727 C1.58032359,4.16909091 1.65123268,4.11381818 1.71377813,4.06509091 C1.81014177,3.98945454 1.8654145,3.94254545 1.8654145,3.86509091 L1.8654145,3.02836363 L2.05523268,3.02836363 C2.49995995,3.028 2.97632359,3.02327272 3.28614177,2.89090909 C3.40686904,2.83927272 3.52105086,2.76763636 3.64177813,2.69127272 C3.91668722,2.51854545 4.22868722,2.32254545 4.70250541,2.32254545 C5.07959632,2.32254545 5.42286904,2.46072727 5.72614177,2.58290909 C5.92905086,2.66472727 6.1214145,2.74181818 6.25414177,2.74181818 L6.28214177,2.74181818 L6.28432359,2.74181818 L6.31232359,2.74181818 C6.44505086,2.74181818 6.6374145,2.66472727 6.84032359,2.58290909 C7.14359632,2.46072727 7.48723268,2.32254545 7.86395995,2.32254545 C8.33777813,2.32254545 8.64977813,2.51854545 8.92468722,2.69127272 C9.0454145,2.76763636 9.15959632,2.83927272 9.28032359,2.89090909 C9.59014177,3.02327272 10.0665054,3.028 10.5112327,3.02836363 L10.7014145,3.02836363 L10.7014145,3.86509091 C10.7014145,3.94254545 10.75596,3.98945454 10.8530509,4.06509091 C10.9152327,4.11381818 10.9865054,4.16909091 11.0374145,4.24472727 C11.0937782,4.32836363 11.1225054,4.42581818 11.11996,4.52727272 C11.1225054,4.62836363 11.0937782,4.72618182 11.0374145,4.80981818 C10.9865054,4.88581818 10.9152327,4.94072727 10.8530509,4.98945454 C10.75596,5.06545454 10.7014145,5.112 10.7014145,5.18945454 L10.7014145,7.588 C10.7014145,7.66581818 10.75596,7.71236363 10.8530509,7.788 C10.9152327,7.83709091 10.9865054,7.89236363 11.0374145,7.968 C11.0937782,8.05163636 11.1225054,8.14909091 11.11996,8.25054545 C11.1225054,8.35163636 11.0937782,8.44909091 11.0374145,8.53272727 C10.9865054,8.60872727 10.9152327,8.664 10.8530509,8.71272727 C10.75596,8.78836363 10.7014145,8.83527272 10.7014145,8.91272727 L10.7014145,9.716 L10.7075963,9.72690909 L10.7014145,9.72690909 L10.7014145,9.72727272 L6.28323268,9.72690909 L1.8654145,9.72727272 L1.8654145,9.72690909 L1.85886904,9.72690909 L1.8654145,9.716 L1.8654145,8.91272727 C1.8654145,8.83527272 1.81014177,8.78836363 1.7134145,8.71272727 C1.65123268,8.664 1.58032359,8.60872727 1.52905086,8.53272727 C1.47268722,8.44909091 1.44395995,8.35163636 1.44650541,8.25054545 C1.44395995,8.14909091 1.47305086,8.05163636 1.52905086,7.968 C1.58032359,7.89236363 1.65123268,7.83709091 1.71377813,7.788 C1.81014177,7.71236363 1.8654145,7.66581818 1.8654145,7.588 L1.8654145,7.588 Z M12.4348691,8.59163636 C12.3075963,8.74218182 12.1875963,8.88436363 12.1875963,9.01927272 C12.1875963,9.32072727 12.55196,9.42618182 12.66396,9.45163636 C12.6723236,9.45345454 12.6777782,9.46109091 12.6854145,9.46436363 C13.2537782,9.53163636 14.0832327,9.45527272 14.8068691,8.71127272 C14.8545054,8.66181818 14.9337782,8.66072727 14.9832327,8.70872727 C15.0326873,8.75672727 15.0337782,8.83563636 14.9857782,8.88509091 C14.4421418,9.44436363 13.7665054,9.73418182 13.0152327,9.73418182 C12.9403236,9.73418182 12.8628691,9.72618182 12.7865054,9.72036363 C12.7923236,9.74218182 12.7966873,9.76363636 12.8057782,9.78545454 C12.8308691,9.84581818 12.8625054,9.90072727 12.8995963,9.94872727 C12.9745054,10.0454546 13.0788691,10.1185455 13.19996,10.1596364 C13.2875963,10.1894546 13.3868691,10.2043637 13.4955963,10.2043637 C14.2992327,10.2043637 14.9537782,9.81163636 15.4883236,9.42727272 C15.8075963,9.20036363 16.2072327,8.79563636 16.3203236,8.49272727 C16.3505054,8.41163636 16.3694145,8.32654545 16.3777782,8.23490909 L15.8155963,8.13963636 C15.8105054,8.13854545 15.8054145,8.13745454 15.8003236,8.136 C15.7417782,8.11854545 15.7014145,8.07454545 15.6926873,8.01818182 C15.6752327,7.90581818 15.7755963,7.83745454 15.9745054,7.70181818 C16.0334145,7.66181818 16.0941418,7.62072727 16.1515963,7.57781818 C16.4465054,7.35890909 16.6865054,7.18618182 16.8214145,7.08981818 C16.6654145,6.916 16.5334145,6.71527272 16.4235963,6.54836363 C16.3381418,6.41927272 16.2646873,6.30763636 16.2021418,6.23890909 C15.9235963,5.936 15.43196,5.75854545 15.0330509,6.00690909 C14.8715963,6.10727272 14.7308691,6.232 14.5814145,6.36363636 C14.4610509,6.47054545 14.3363236,6.58072727 14.1995963,6.67709091 C14.1461418,6.71490909 14.0730509,6.70509091 14.0315963,6.65490909 C13.9897782,6.60436363 13.9941418,6.53054545 14.0410509,6.48545454 C14.0588691,6.468 14.0803236,6.448 14.1043236,6.42545454 C14.2861418,6.25454545 14.7123236,5.85381818 14.7123236,5.56981818 C14.7123236,4.912 14.0821418,3.83018182 13.8588691,3.46763636 C13.4221418,3.88109091 13.0948691,4.49163636 12.81996,5.03818182 C12.59996,5.47527272 12.44396,5.87490909 12.3425054,6.26036363 L12.3323236,6.29963636 C12.2566873,6.58472727 12.0992327,7.17745454 12.3072327,7.40036363 C12.3352327,7.43018182 12.3715963,7.45709091 12.4105054,7.48581818 C12.4472327,7.51345454 12.4854145,7.54145454 12.5217782,7.576 C12.9501418,7.98181818 12.6523236,8.33454545 12.4348691,8.59163636 L12.4348691,8.59163636 Z M14.3017782,3.72945454 C14.3465054,3.80945454 14.3930509,3.89454545 14.4403236,3.98618182 C15.3585054,3.43709091 16.6661418,3.37381818 16.8166873,3.36836363 C17.6250509,3.33854545 18.7974145,3.46545454 19.7963236,4.23636363 C20.4174145,4.71527272 20.9290509,5.30872727 21.4246873,5.88218182 C21.5537782,6.032 21.6872327,6.18690909 21.8210509,6.33709091 C22.2170509,6.78363636 22.6028691,7.17781818 22.98396,7.52981818 C23.0534145,7.30436363 23.0537782,7.112 22.9774145,6.95927272 C22.8490509,6.70327272 22.5486873,6.62981818 22.5454145,6.62909091 C22.5130509,6.62145454 22.4850509,6.6 22.4694145,6.57054545 C22.4534145,6.54109091 22.4508691,6.50654545 22.4621418,6.47490909 C22.5054145,6.35745454 22.6043236,6.01563636 22.5417782,5.844 C22.4886873,5.69672727 22.2115963,5.63563636 22.1188691,5.62545454 C22.0821418,5.62181818 22.0497782,5.60072727 22.0308691,5.56872727 C22.01196,5.53709091 22.0090509,5.49818182 22.0235963,5.46436363 C22.0625054,5.37127272 22.1425054,5.09672727 22.0475963,4.94945454 C21.8632327,4.66327272 21.3785054,4.80181818 21.3734145,4.80327272 C21.33196,4.81563636 21.2868691,4.80363636 21.2566873,4.77236363 C21.2265054,4.74145454 21.2163236,4.696 21.2301418,4.65454545 C21.2315963,4.65054545 21.3701418,4.21236363 21.0974145,3.93418182 C20.7788691,3.60872727 20.0963236,3.8 20.0894145,3.80218182 C20.04796,3.81381818 20.0032327,3.80218182 19.9734145,3.77090909 C19.9432327,3.74 19.9326873,3.69490909 19.9461418,3.65381818 C19.9508691,3.63890909 20.0632327,3.27636363 19.8192327,3.12145454 C19.4305054,2.87563636 18.9865054,3.19018182 18.9817782,3.19345454 C18.94796,3.21781818 18.9043236,3.22254545 18.8665054,3.20581818 C18.8286873,3.18909091 18.8025054,3.15345454 18.7974145,3.11272727 C18.7952327,3.09272727 18.73196,2.61745454 18.3137782,2.56109091 C17.8621418,2.50109091 17.3835963,2.96581818 17.3792327,2.97018182 C17.3548691,2.99381818 17.3225054,3.00618182 17.2890509,3.00363636 C17.2552327,3.00109091 17.2246873,2.98472727 17.20396,2.95818182 C17.2014145,2.95418182 16.8825054,2.54254545 16.4817782,2.56290909 C16.0945054,2.58036363 15.9428691,2.97236363 15.9414145,2.97636363 C15.9275963,3.01345454 15.89596,3.04072727 15.8570509,3.04909091 C15.8185054,3.05745454 15.7781418,3.04618182 15.7501418,3.01854545 C15.7468691,3.01490909 15.3643236,2.64909091 14.9708691,2.79345454 C14.5090509,2.96254545 14.3577782,3.49709091 14.3017782,3.72945454 L14.3017782,3.72945454 Z M23.88396,8.59781818 C23.1432327,8.05927272 22.4075963,7.37418182 21.6341418,6.50290909 C21.4995963,6.35127272 21.3654145,6.196 21.2355963,6.04545454 C20.7483236,5.48109091 20.2450509,4.89745454 19.64396,4.43381818 C18.70396,3.70872727 17.5930509,3.59018182 16.8254145,3.61781818 C16.3035963,3.63672727 15.2548691,3.78363636 14.55196,4.21018182 C14.7672327,4.65781818 14.9617782,5.17272727 14.9617782,5.56981818 C14.9617782,5.64 14.9472327,5.71127272 14.9225054,5.78181818 C15.38396,5.50981818 15.9250509,5.66145454 16.2788691,5.96945454 C16.4330509,5.72581818 16.6301418,5.55927272 16.8505054,5.50327272 C17.0715963,5.44654545 17.3028691,5.49781818 17.5188691,5.65054545 C17.9508691,5.95672727 18.0497782,5.94290909 18.4690509,5.71709091 C18.7232327,5.58036363 19.04396,5.60036363 19.3054145,5.76981818 C19.5603236,5.93490909 19.7137782,6.21090909 19.73196,6.52509091 C19.94396,6.49927272 20.3428691,6.488 20.6072327,6.71236363 C20.8581418,6.92545454 20.9003236,7.25890909 20.9003236,7.46109091 C21.0966873,7.42363636 21.4228691,7.40981818 21.63996,7.65236363 C21.8225054,7.85672727 21.8305054,8.11054545 21.8366873,8.296 C21.8381418,8.36 21.8414145,8.45563636 21.8563236,8.48109091 C21.8774145,8.492 21.9203236,8.50509091 21.9617782,8.51818182 C22.1828691,8.58654545 22.6425054,8.72872727 22.5643236,9.36872727 C22.5570509,9.428 22.5065054,9.47127272 22.4486873,9.47127272 C22.44396,9.47127272 22.4392327,9.47090909 22.4341418,9.47018182 C22.3701418,9.46254545 22.3246873,9.40436363 22.3326873,9.34036363 C22.3872327,8.89381818 22.1246873,8.81272727 21.8930509,8.74109091 C21.8315963,8.72181818 21.7785054,8.70545454 21.7363236,8.68145454 C21.6130509,8.60981818 21.6083236,8.46109091 21.6032327,8.30327272 C21.5977782,8.13709091 21.59196,7.94872727 21.4657782,7.808 C21.2490509,7.56581818 20.8192327,7.72254545 20.8145054,7.724 C20.77596,7.73854545 20.73196,7.73127272 20.7003236,7.70509091 C20.6683236,7.67890909 20.6523236,7.63745454 20.6585054,7.59672727 C20.6592327,7.592 20.7275963,7.12072727 20.4563236,6.89018182 C20.2254145,6.69418182 19.7894145,6.74181818 19.6410509,6.77636363 C19.6050509,6.78509091 19.5668691,6.77563636 19.5385054,6.75163636 C19.5105054,6.72727272 19.4952327,6.69127272 19.4981418,6.65454545 C19.5195963,6.36218182 19.4028691,6.11127272 19.1785054,5.96581818 C18.9886873,5.84254545 18.7588691,5.82581818 18.5795963,5.92254545 C18.0890509,6.18654545 17.8974145,6.20436363 17.3835963,5.84072727 C17.2232327,5.72727272 17.0632327,5.68945454 16.90796,5.72909091 C16.73196,5.77381818 16.5712327,5.92327272 16.4443236,6.14472727 C16.5032327,6.22 16.56396,6.30727272 16.63196,6.41090909 C16.7650509,6.61345454 16.9163236,6.84290909 17.0977782,7.01781818 C17.1250509,7.04363636 17.1388691,7.08 17.13596,7.11709091 C17.1330509,7.15418182 17.1134145,7.18836363 17.0832327,7.20981818 C17.0803236,7.212 16.7570509,7.43963636 16.3003236,7.77854545 C16.2388691,7.824 16.1730509,7.86872727 16.1152327,7.90836363 C16.1043236,7.91563636 16.0930509,7.92363636 16.0810509,7.93163636 L16.4835963,8 C16.7606873,7.84654545 17.0643236,7.78254545 17.3821418,7.78254545 C18.3621418,7.78254545 19.4755963,8.392 20.3486873,8.87018182 C20.5166873,8.96181818 20.6752327,9.04872727 20.8170509,9.12181818 C22.3075963,9.89272727 23.77596,10.5610909 25.3552327,10.2818182 C25.3661418,10.2796364 26.63196,10.0214546 27.2621418,9.01163636 C27.6501418,8.38945454 27.7221418,7.60836363 27.47596,6.68981818 C27.4497782,6.59090909 27.42396,6.49709091 27.3992327,6.40727272 C27.1377782,5.45381818 26.9886873,4.91090909 27.45196,3.72327272 C26.91196,3.68872727 26.5854145,3.86836363 26.4021418,4.03418182 C26.0483236,4.35454545 25.8825054,4.91272727 25.9090509,5.69345454 C25.9112327,5.75890909 25.8625054,5.81490909 25.7970509,5.82181818 C25.31196,5.872 24.9046873,6.10072727 24.7072327,6.43381818 C24.51596,6.75636363 24.5050509,7.17381818 24.6752327,7.67781818 C24.91596,7.34909091 25.3232327,6.90618182 25.8450509,7.02145454 C26.1705054,7.09309091 26.4145054,7.34509091 26.4985054,7.69527272 C26.59196,8.084 26.4657782,8.50072727 26.1850509,8.73163636 C25.5021418,9.29272727 24.5137782,9.05563636 23.88396,8.59781818 L23.88396,8.59781818 Z M12.2443236,8.43090909 C12.4894145,8.14036363 12.59596,7.99054545 12.3501418,7.75709091 C12.3243236,7.73309091 12.2941418,7.71054545 12.2621418,7.68654545 C12.21596,7.65236363 12.1683236,7.61709091 12.1246873,7.57018182 C11.8225054,7.24690909 11.9905054,6.61381818 12.0908691,6.23563636 L12.1010509,6.19672727 C12.2072327,5.79418182 12.3690509,5.37854545 12.5966873,4.92618182 C12.9050509,4.31309091 13.2777782,3.62181818 13.8057782,3.18072727 C13.8330509,3.15781818 13.8686873,3.14727272 13.90396,3.15272727 C13.9395963,3.15818182 13.9708691,3.17818182 13.9901418,3.208 C13.9995963,3.22181818 14.0570509,3.31018182 14.13996,3.44872727 C14.2406873,3.14727272 14.4457782,2.73745454 14.8905054,2.57454545 C15.2705054,2.43490909 15.6185054,2.62545454 15.7941418,2.75345454 C15.8941418,2.59163636 16.1043236,2.34618182 16.4712327,2.32981818 C16.8570509,2.31163636 17.1661418,2.57527272 17.3072327,2.72181818 C17.4883236,2.57054545 17.9094145,2.27127272 18.3450509,2.33018182 C18.7257782,2.38109091 18.9163236,2.68072727 18.99196,2.91854545 C19.1955963,2.81781818 19.5785054,2.69309091 19.94396,2.92436363 C20.1970509,3.08472727 20.2214145,3.35636363 20.2043236,3.53890909 C20.4694145,3.49418182 20.96396,3.464 21.2643236,3.77090909 C21.5090509,4.02072727 21.5166873,4.34436363 21.4905054,4.54436363 C21.7054145,4.51927272 22.0555963,4.53090909 22.2435963,4.82290909 C22.3657782,5.01236363 22.3272327,5.26436363 22.2846873,5.41890909 C22.4432327,5.45745454 22.6835963,5.55018182 22.7614145,5.76436363 C22.8370509,5.97236363 22.7675963,6.27636363 22.7185054,6.44181818 C22.8530509,6.49709091 23.0654145,6.61672727 23.1846873,6.852 C23.3021418,7.08363636 23.2930509,7.36836363 23.1712327,7.69490909 C23.4588691,7.95018182 23.7450509,8.188 24.0308691,8.39563636 C24.5850509,8.79890909 25.4461418,9.01563636 26.0261418,8.53854545 C26.2348691,8.36727272 26.3272327,8.05163636 26.25596,7.75345454 C26.1937782,7.49454545 26.0243236,7.31672727 25.7915963,7.26509091 C25.3748691,7.17309091 25.0294145,7.59163636 24.7465054,8.01309091 C24.7206873,8.05127272 24.67596,8.072 24.6305054,8.06763636 C24.5846873,8.06327272 24.5454145,8.03418182 24.5275963,7.99163636 C24.2435963,7.31272727 24.2315963,6.74581818 24.4923236,6.30618182 C24.7137782,5.93309091 25.1435963,5.67018182 25.6566873,5.58836363 C25.6475963,4.78909091 25.8417782,4.20436363 26.2345054,3.84909091 C26.4745054,3.63163636 26.9145054,3.39345454 27.6465054,3.492 C27.6850509,3.49709091 27.7188691,3.52 27.7381418,3.55345454 C27.7574145,3.58690909 27.7603236,3.628 27.7454145,3.66363636 C27.2395963,4.88181818 27.3650509,5.33927272 27.6403236,6.34072727 C27.6646873,6.43163636 27.6905054,6.52581818 27.7170509,6.62545454 C27.9821418,7.61418182 27.8995963,8.46218182 27.4726873,9.14581818 C26.7835963,10.248 25.4574145,10.5163637 25.4010509,10.5272728 C25.1334145,10.5745455 24.8690509,10.5963639 24.6083236,10.5963639 C23.2541418,10.5967273 21.9854145,10.0072728 20.7021418,9.34363636 C20.5577782,9.26909091 20.3981418,9.18145454 20.2290509,9.08909091 C19.1948691,8.52290909 17.6425054,7.67345454 16.6297782,8.20472727 C16.6228691,8.33781818 16.5974145,8.46363636 16.5541418,8.58036363 C16.3955963,9.00581818 15.8825054,9.45345454 15.6334145,9.63018182 C15.0672327,10.0374546 14.3701418,10.4541818 13.4955963,10.4541818 C13.3595963,10.4541818 13.2326873,10.4345455 13.1192327,10.396 C12.95196,10.3389091 12.8075963,10.2370909 12.7021418,10.1018182 C12.6515963,10.0363637 12.6090509,9.96218182 12.5752327,9.88145454 C12.5457782,9.81018182 12.5301418,9.74290909 12.5206873,9.672 C12.1588691,9.56363636 11.9381418,9.31927272 11.9381418,9.01927272 C11.9381418,8.79309091 12.0937782,8.60872727 12.2443236,8.43090909 L12.2443236,8.43090909 Z M13.4068691,7.70872727 C13.3414145,7.45018182 13.5966873,7.33454545 13.7952327,7.33454545 C13.9326873,7.33454545 14.06396,7.37018182 14.1930509,7.47709091 C14.23596,7.51236363 14.2755963,7.548 14.3101418,7.58109091 C14.4003236,7.66690909 14.3948691,7.812 14.2981418,7.89054545 C14.2010509,7.96981818 14.0897782,8.04872727 14.0203236,8.09636363 C13.8603236,8.20581818 13.5861418,8.40654545 13.3963236,8.24872727 C13.29996,8.16909091 13.4901418,8.03890909 13.4068691,7.70872727 L13.4068691,7.70872727 Z"
           id="Fill-3"
           style="fill:#ffffff" />
      </g>
      <path
         d="M106.2112,38.4230909 C106.431564,38.4230909 106.885382,38.4594545 107.029745,38.5921818 L106.912655,39.2190909 L106.675927,39.3336364 C106.5432,39.0790909 106.240655,38.7838182 105.843927,38.7838182 C105.270836,38.7838182 104.847564,39.1707273 104.618836,40.1950909 L104.514109,40.6514545 L105.907564,40.6514545 L105.870836,40.85 L105.643564,41.0503636 L104.399927,41.0503636 C103.937018,43.3081818 103.178473,46.3143636 102.635927,47.7550909 L102.210109,47.7550909 L103.566473,41.0503636 L102.664655,41.0503636 L102.750109,40.6514545 L103.642473,40.6514545 C104.143564,38.6310909 105.814836,38.4230909 106.2112,38.4230909 Z M99.9205818,40.5363636 C101.181673,40.5363636 101.457309,41.3894545 101.457309,42.2447273 C101.457309,43.2876364 100.623127,45.5069091 98.8118545,45.5069091 C97.5976727,45.5069091 97.2656727,44.5301818 97.2656727,43.64 C97.2656727,42.3974545 98.3373091,40.5363636 99.9205818,40.5363636 Z M44.0941455,38.7555273 L44.0941455,39.0024364 C43.3305282,39.094513 43.280423,39.0663608 43.2783356,39.691568 L43.2785091,42.7188 C43.2785091,44.0460727 43.6374182,45.0602545 45.0508727,45.0602545 C46.3512364,45.0602545 47.0341455,44.1889818 47.0341455,42.6726182 L47.0341455,40.0337091 C47.0341455,39.8377091 46.9970545,39.6740727 46.9770545,39.5228 C46.9305091,39.1820727 46.6076,39.0486182 46.1610545,39.0024364 L46.1610545,38.7555273 L48.3996,38.7555273 L48.3996,39.0024364 C47.9446909,39.0486182 47.6312364,39.1820727 47.5836,39.5228 C47.5654182,39.6740727 47.5301455,39.8377091 47.5301455,40.0337091 L47.5301455,42.7078909 C47.5301455,44.7475273 46.2290545,45.5068 45.0039636,45.5068 C42.9846909,45.5068 42.3596,44.4824364 42.3596,42.7657091 L42.3596,39.9406182 C42.3596,39.0580727 42.3977818,39.1053455 41.5432364,39.0024364 L41.5432364,38.7555273 L44.0941455,38.7555273 Z M77.6295273,40.1840727 C77.9451636,40.1840727 78.3622545,40.2197091 78.6542545,40.3229818 C78.7000727,40.3368 78.7048,40.3666182 78.7048,40.4004364 L78.7048,41.3622545 L78.5153455,41.3622545 C78.4560727,40.8498909 78.1793455,40.4397091 77.5938909,40.4397091 C77.1688,40.4397091 76.7884364,40.6593455 76.7884364,41.1997091 C76.7884364,41.7128 77.2997091,42.0182545 78.0324364,42.5684364 C78.8066182,43.1469818 79.0560727,43.5200727 79.0560727,44.1269818 C79.0560727,44.9982545 78.1648,45.4800727 77.2862545,45.4800727 C76.8171636,45.4800727 76.4153455,45.3924364 76.0349818,45.2455273 C76.0040727,45.2331636 75.9840727,45.2015273 75.9840727,45.1444364 L75.9840727,44.0902545 L76.1753455,44.0902545 C76.2542545,44.9033455 76.7884364,45.2258909 77.3535273,45.2258909 C77.8713455,45.2258909 78.2953455,44.8295273 78.2953455,44.2946182 C78.2953455,43.8200727 78.0389818,43.4328 76.9426182,42.7073455 C76.5466182,42.4422545 76.0557091,42.1568 76.0557091,41.3622545 C76.0557091,40.7026182 76.7884364,40.1840727 77.6295273,40.1840727 Z M136.044,40.1840727 C136.357455,40.1840727 136.774909,40.2197091 137.066182,40.3229818 C137.110909,40.3368 137.118545,40.3666182 137.118545,40.4004364 L137.118545,41.3622545 L136.927636,41.3622545 C136.871273,40.8498909 136.590909,40.4397091 136.004364,40.4397091 C135.582182,40.4397091 135.201455,40.6593455 135.201455,41.1997091 C135.201455,41.7128 135.714909,42.0182545 136.444364,42.5684364 C137.22,43.1469818 137.468364,43.5200727 137.468364,44.1269818 C137.468364,44.9982545 136.578545,45.4800727 135.698545,45.4800727 C135.229818,45.4800727 134.826182,45.3924364 134.445818,45.2455273 C134.419273,45.2331636 134.396727,45.2015273 134.396727,45.1444364 L134.396727,44.0902545 L134.585818,44.0902545 C134.666545,44.9033455 135.201455,45.2258909 135.765818,45.2258909 C136.282182,45.2258909 136.708,44.8295273 136.708,44.2946182 C136.708,43.8200727 136.453455,43.4328 135.353818,42.7073455 C134.961091,42.4422545 134.468364,42.1568 134.468364,41.3622545 C134.468364,40.7026182 135.201455,40.1840727 136.044,40.1840727 Z M167.855745,40.2714545 L167.855745,40.4605455 C167.274355,40.5314546 167.228605,40.5117691 167.225887,40.9727842 L167.225887,44.6903729 C167.228605,45.1511249 167.274355,45.1313262 167.855745,45.2012727 L167.855745,45.3925455 L165.885564,45.3925455 L165.885564,45.2012727 C166.467917,45.1313262 166.513214,45.1511249 166.515811,44.6903729 L166.515811,40.9727842 C166.513214,40.5117691 166.467917,40.5314546 165.885564,40.4605455 L165.885564,40.2714545 L167.855745,40.2714545 Z M171.698036,40.1840364 C171.847163,40.6252 172.018742,41.1368255 172.192585,41.6545055 L172.366435,42.1718182 C172.712655,43.2009382 173.041018,44.1684 173.190036,44.5589455 C173.350764,44.9684 173.466764,45.2014909 173.781673,45.2014909 L173.781673,45.3927636 L172.077673,45.3927636 L172.077673,45.2014909 C172.5384,45.2014909 172.582036,44.9596727 172.464218,44.6407636 L172.149309,43.6960364 L170.285673,43.6960364 L169.947855,44.6749455 C169.852582,44.9596727 169.991491,45.2014909 170.315855,45.2014909 L170.315855,45.3927636 L168.982036,45.3927636 L168.982036,45.2014909 C169.180218,45.2014909 169.391855,45.0771273 169.510036,44.8367636 C169.8224,44.1931273 170.679855,41.8011273 171.289309,40.1840364 L171.698036,40.1840364 Z M146.356945,40.2712 L146.356945,40.4602909 C145.696945,40.5410182 145.726764,40.5050182 145.726764,41.1842909 L145.726764,44.5962909 C145.726764,45.1086545 146.012945,45.1581091 146.664218,45.1581091 C147.724945,45.1581091 147.681309,44.8581091 148.016218,44.0759273 L148.198764,44.0759273 L147.980945,45.3926545 L144.388218,45.3926545 L144.388218,45.2013818 C144.963809,45.1317 145.014599,45.1508307 145.018303,44.7018861 L145.018303,40.961467 C145.014599,40.5121943 144.963809,40.5309273 144.388218,40.4602909 L144.388218,40.2712 L146.356945,40.2712 Z M82.5471273,40.2714545 L82.5471273,40.4605455 C81.9660577,40.5314546 81.9209115,40.5117691 81.9183313,40.9727842 L81.9183313,44.6903729 C81.9209115,45.1511249 81.9660577,45.1313262 82.5471273,45.2012727 L82.5471273,45.3925455 L80.5769455,45.3925455 L80.5769455,45.2012727 C81.1531727,45.1319091 81.2043205,45.1508011 81.2081039,44.7017919 L81.2081039,40.9613587 C81.2043205,40.5120909 81.1531727,40.5308636 80.5769455,40.4605455 L80.5769455,40.2714545 L82.5471273,40.2714545 Z M160.376255,40.2715273 C161.466436,41.5955273 162.5988,42.9424364 163.691527,44.2646182 L163.704618,44.2646182 L163.704618,41.2602545 C163.704618,41.1042545 163.678073,40.9795273 163.662073,40.8624364 C163.624618,40.6002545 163.375891,40.4984364 162.893709,40.4606182 L162.893709,40.2715273 L164.687164,40.2715273 L164.687164,40.4606182 C164.343164,40.4984364 164.0948,40.6002545 164.057345,40.8624364 C164.043164,40.9795273 164.012255,41.1042545 164.012255,41.2602545 L164.012255,45.3926182 L163.765709,45.3926182 C162.5988,44.0169818 161.3948,42.5751636 160.199891,41.1704364 L160.199891,44.4057091 C160.199891,44.5588 160.227891,44.6828 160.244982,44.7977091 C160.280618,45.0642545 160.5308,45.1678909 161.014073,45.2013455 L161.014073,45.3926182 L159.219527,45.3926182 L159.219527,45.2013455 C159.571164,45.1678909 159.813345,45.0642545 159.847891,44.7977091 C159.864255,44.6828 159.890073,44.5588 159.890073,44.4057091 L159.890073,40.9591636 C159.688982,40.6940727 159.460618,40.4606182 159.044255,40.4606182 L159.044255,40.2715273 L160.376255,40.2715273 Z M68.6776,40.2712 L68.6776,41.4497455 L68.4877818,41.4497455 C68.4136,40.9053818 68.2670545,40.5050182 67.7423273,40.5050182 L66.7459636,40.5050182 L66.7459636,42.5966545 L67.3612364,42.5966545 C67.8219636,42.5966545 68.0190545,42.4137455 68.0339636,41.9602909 L68.2241455,41.9602909 L68.2241455,43.5199273 L68.0339636,43.5199273 C68.0190545,43.0886545 67.8514182,42.8337455 67.3612364,42.8337455 L66.7459636,42.8337455 L66.7459636,44.4857455 C66.7459636,45.1086545 67.0321455,45.1581091 67.6892364,45.1581091 C68.7525091,45.1581091 68.6997818,44.8581091 69.0368727,44.0759273 L69.2259636,44.0759273 L69.0085091,45.3926545 L65.4063273,45.3926545 L65.4063273,45.2013818 C65.9877177,45.1311145 66.0334679,45.1511585 66.0361858,44.6904687 L66.0361858,40.9728927 C66.0334679,40.5118732 65.9877177,40.5315209 65.4063273,40.4602909 L65.4063273,40.2712 L68.6776,40.2712 Z M128.774691,40.2715273 C129.866327,41.5955273 131.000509,42.9424364 132.090691,44.2646182 L132.104145,44.2646182 L132.104145,41.2602545 C132.104145,41.1042545 132.076145,40.9795273 132.063418,40.8624364 C132.023418,40.6002545 131.775782,40.4984364 131.292509,40.4606182 L131.292509,40.2715273 L133.085964,40.2715273 L133.085964,40.4606182 C132.743418,40.4984364 132.492509,40.6002545 132.456873,40.8624364 C132.440873,40.9795273 132.410691,41.1042545 132.410691,41.2602545 L132.410691,45.3926182 L132.163782,45.3926182 C131.000509,44.0169818 129.7936,42.5751636 128.600509,41.1704364 L128.600509,44.4057091 C128.600509,44.5588 128.629236,44.6828 128.643782,44.7977091 C128.681964,45.0642545 128.930691,45.1678909 129.412509,45.2013455 L129.412509,45.3926182 L127.619782,45.3926182 L127.619782,45.2013455 C127.970691,45.1678909 128.211782,45.0642545 128.251055,44.7977091 C128.265236,44.6828 128.293964,44.5588 128.293964,44.4057091 L128.293964,40.9591636 C128.089236,40.6940727 127.8616,40.4606182 127.444145,40.4606182 L127.444145,40.2715273 L128.774691,40.2715273 Z M150.336036,40.2713455 L150.336036,40.4604364 C149.934582,40.4604364 149.640764,40.5778909 149.881855,41.2797091 C150.1684,42.1437091 150.593491,43.4011636 150.974582,44.5146182 C151.441855,43.3938909 151.886945,42.2688 152.340764,41.1498909 C152.5244,40.6873455 152.334582,40.4604364 151.8364,40.4604364 L151.8364,40.2713455 L153.415309,40.2713455 L153.415309,40.4604364 C153.204764,40.4604364 152.962582,40.5331636 152.809491,40.9015273 C152.194218,42.4000727 151.574582,43.8924364 150.958218,45.3924364 L150.585855,45.3924364 C150.141127,44.1269818 149.640764,42.7160727 149.193491,41.4720727 C148.922582,40.6873455 148.696764,40.4604364 148.346582,40.4604364 L148.346582,40.2713455 L150.336036,40.2713455 Z M122.098291,40.2715273 C123.187382,41.5955273 124.322655,42.9424364 125.4132,44.2646182 L125.427018,44.2646182 L125.427018,41.2602545 C125.427018,41.1042545 125.398655,40.9795273 125.382655,40.8624364 C125.346291,40.6002545 125.097927,40.4984364 124.612836,40.4606182 L124.612836,40.2715273 L126.407382,40.2715273 L126.407382,40.4606182 C126.063018,40.4984364 125.813927,40.6002545 125.776473,40.8624364 C125.763018,40.9795273 125.7332,41.1042545 125.7332,41.2602545 L125.7332,45.3926182 L125.484836,45.3926182 C124.322655,44.0169818 123.113564,42.5751636 121.921927,41.1704364 L121.921927,44.4057091 C121.921927,44.5588 121.951382,44.6828 121.965564,44.7977091 C122.003018,45.0642545 122.2492,45.1678909 122.733564,45.2013455 L122.733564,45.3926182 L120.941927,45.3926182 L120.941927,45.2013455 C121.294291,45.1678909 121.533564,45.0642545 121.568836,44.7977091 C121.585564,44.6828 121.613564,44.5588 121.613564,44.4057091 L121.613564,40.9591636 C121.4092,40.6940727 121.181927,40.4606182 120.767745,40.4606182 L120.767745,40.2715273 L122.098291,40.2715273 Z M112.315927,38.7556 C113.891564,38.7556 114.670109,39.3810545 114.670109,40.5192364 C114.670109,41.8832364 113.436655,42.6232364 111.986109,42.5366909 L111.986109,42.3497818 C113.169745,42.3690545 113.719927,41.6548727 113.719927,40.6126909 C113.719927,39.5508727 113.209382,39.0581455 112.146109,39.0581455 L111.5672,39.0581455 L111.567049,44.456683 C111.569259,45.0809971 111.619946,45.0523656 112.383564,45.1454182 L112.383564,45.3926909 L109.833382,45.3926909 L109.833382,45.1454182 C110.597975,45.0523656 110.64731,45.0809971 110.649224,44.456683 L110.649224,39.6916408 C110.64731,39.0664336 110.597975,39.0945857 109.833382,39.0025091 L109.833382,38.7556 L112.315927,38.7556 Z M50.3816364,40.2715273 C51.4718182,41.5955273 52.6049091,42.9424364 53.6969091,44.2646182 L53.7110909,44.2646182 L53.7110909,41.2602545 C53.7110909,41.1042545 53.6827273,40.9795273 53.6678182,40.8624364 C53.6296364,40.6002545 53.3805455,40.4984364 52.8990909,40.4606182 L52.8990909,40.2715273 L54.6918182,40.2715273 L54.6918182,40.4606182 C54.3463636,40.4984364 54.0972727,40.6002545 54.062,40.8624364 C54.0474545,40.9795273 54.0183636,41.1042545 54.0183636,41.2602545 L54.0183636,45.3926182 L53.7681818,45.3926182 C52.6049091,44.0169818 51.3994545,42.5751636 50.2045455,41.1704364 L50.2045455,44.4057091 C50.2045455,44.5588 50.2354545,44.6828 50.2489091,44.7977091 C50.2863636,45.0642545 50.5354545,45.1678909 51.0183636,45.2013455 L51.0183636,45.3926182 L49.2256364,45.3926182 L49.2256364,45.2013455 C49.5765455,45.1678909 49.8176364,45.0642545 49.8550909,44.7977091 C49.8681818,44.6828 49.898,44.5588 49.898,44.4057091 L49.898,40.9591636 C49.6921818,40.6940727 49.4670909,40.4606182 49.05,40.4606182 L49.05,40.2715273 L50.3816364,40.2715273 Z M119.247164,40.2712 L119.247164,41.4497455 L119.0588,41.4497455 C118.985345,40.9053818 118.838073,40.5050182 118.311164,40.5050182 L117.316255,40.5050182 L117.316255,42.5966545 L117.932255,42.5966545 C118.391164,42.5966545 118.590073,42.4137455 118.602436,41.9602909 L118.794073,41.9602909 L118.794073,43.5199273 L118.602436,43.5199273 C118.590073,43.0886545 118.419891,42.8337455 117.932255,42.8337455 L117.316255,42.8337455 L117.316255,44.4857455 C117.316255,45.1086545 117.600255,45.1581091 118.259891,45.1581091 C119.3188,45.1581091 119.268255,44.8581091 119.607527,44.0759273 L119.797709,44.0759273 L119.576618,45.3926545 L115.977709,45.3926545 L115.977709,45.2013818 C116.552345,45.1317 116.602737,45.1508307 116.606356,44.7018861 L116.606356,40.961467 C116.602737,40.5121943 116.552345,40.5309273 115.977709,40.4602909 L115.977709,40.2712 L119.247164,40.2712 Z M58.0094545,40.2714545 L58.0094545,40.4605455 C57.4277433,40.5314546 57.3839371,40.5117691 57.3816811,40.9727842 L57.3816811,44.6903729 C57.3839371,45.1511249 57.4277433,45.1313262 58.0094545,45.2012727 L58.0094545,45.3925455 L56.0421818,45.3925455 L56.0421818,45.2012727 C56.6174546,45.1319091 56.6682046,45.1508011 56.6719034,44.7017919 L56.6719034,40.9613587 C56.6682046,40.5120909 56.6174546,40.5308636 56.0421818,40.4605455 L56.0421818,40.2714545 L58.0094545,40.2714545 Z M156.166364,40.1840364 C156.315273,40.6252 156.486764,41.1368255 156.660591,41.6545055 L156.834448,42.1718182 C157.18072,43.2009382 157.509346,44.1684 157.658364,44.5589455 C157.819818,44.9684 157.938,45.2014909 158.250727,45.2014909 L158.250727,45.3927636 L156.547818,45.3927636 L156.547818,45.2014909 C157.008909,45.2014909 157.052545,44.9596727 156.932909,44.6407636 L156.619091,43.6960364 L154.755091,43.6960364 L154.415818,44.6749455 C154.321636,44.9596727 154.461273,45.2014909 154.782727,45.2014909 L154.782727,45.3927636 L153.450364,45.3927636 L153.450364,45.2014909 C153.648545,45.2014909 153.862,45.0771273 153.978,44.8367636 C154.192959,44.3979207 154.65912,43.1463054 155.126832,41.8816966 L155.313409,41.3770558 C155.467972,40.959104 155.619008,40.5515571 155.757273,40.1840364 L156.166364,40.1840364 Z M140.460873,40.2712 L140.460873,40.4602909 C139.906691,40.4602909 139.960145,40.7384727 140.140145,41.1199273 L141.027055,42.9573818 L142.035418,41.1199273 C142.2856,40.6733818 142.051418,40.4602909 141.620145,40.4602909 L141.620145,40.2712 L143.1256,40.2712 L143.1256,40.4602909 C142.921964,40.4602909 142.721964,40.5570182 142.5256,40.9053818 L141.304509,43.1257455 C141.231782,43.2715636 141.216145,43.4766545 141.216145,43.6581091 L141.216091,44.6904687 C141.218742,45.1511585 141.26421,45.1311145 141.8456,45.2013818 L141.8456,45.3926545 L139.876873,45.3926545 L139.876873,45.2013818 C140.458905,45.1311145 140.503032,45.1511585 140.505359,44.6904687 L140.505236,43.3515636 L139.379418,41.1199273 C139.139055,40.6432 138.932145,40.4602909 138.597964,40.4602909 L138.597964,40.2712 L140.460873,40.2712 Z M87.9578909,40.2714545 L88.1546182,41.3889091 L87.9695273,41.3889091 C87.7302545,40.9052727 87.5829818,40.5049091 86.9469818,40.5049091 L86.2891636,40.5049091 L86.2890798,44.6903729 C86.2915845,45.1511249 86.3363722,45.1313262 86.9168,45.2012727 L86.9168,45.3925455 L84.9480727,45.3925455 L84.9480727,45.2012727 C85.5294631,45.1313262 85.5766289,45.1511249 85.5796798,44.6903729 L85.5797091,40.5049091 L84.9197091,40.5049091 C84.2826182,40.5049091 84.1371636,40.9052727 83.8946182,41.3889091 L83.7109818,41.3889091 L83.9095273,40.2714545 L87.9578909,40.2714545 Z M61.1989455,40.2713455 L61.1989455,40.4604364 C60.7974909,40.4604364 60.5040364,40.5778909 60.7440364,41.2797091 C61.0313091,42.1437091 61.4564,43.4011636 61.8349455,44.5146182 C62.3044,43.3938909 62.7516727,42.2688 63.2040364,41.1498909 C63.3876727,40.6873455 63.1960364,40.4604364 62.6989455,40.4604364 L62.6989455,40.2713455 L64.2793091,40.2713455 L64.2793091,40.4604364 C64.0673091,40.4604364 63.8265818,40.5331636 63.6716727,40.9015273 C63.0564,42.4000727 62.4367636,43.8924364 61.8222182,45.3924364 L61.4480364,45.3924364 C61.0022182,44.1269818 60.5040364,42.7160727 60.0560364,41.4720727 C59.7884,40.6873455 59.5607636,40.4604364 59.2098545,40.4604364 L59.2098545,40.2713455 L61.1989455,40.2713455 Z M72.6130545,40.2713818 C73.3519636,40.2713818 74.0919636,40.6593818 74.0919636,41.5168364 C74.0919636,42.2688364 73.6319636,42.7873818 73.0679636,43.0066545 L73.7846909,44.0972 C74.1497818,44.6328364 74.5585091,45.1444727 74.8166909,45.2986545 L74.8166909,45.3924727 L74.0628727,45.3924727 C73.6319636,45.3924727 73.3963273,44.5964727 72.5119636,43.1255636 L71.8236,43.1255636 L71.8235053,44.6903002 C71.8259655,45.1510522 71.8706588,45.1312535 72.4526909,45.2012 L72.4526909,45.3924727 L70.4846909,45.3924727 L70.4846909,45.2012 C71.0599637,45.1318364 71.110992,45.1507284 71.1147605,44.7017192 L71.1147605,40.9615295 C71.110992,40.5120182 71.0599637,40.5307909 70.4846909,40.4604727 L70.4846909,40.2713818 L72.6130545,40.2713818 Z M90.8626182,40.2712 L90.8626182,40.4602909 C90.3066182,40.4602909 90.3553455,40.7384727 90.5393455,41.1199273 L91.4266182,42.9573818 L92.4342545,41.1199273 C92.6844364,40.6733818 92.4495273,40.4602909 92.0171636,40.4602909 L92.0171636,40.2712 L93.5251636,40.2712 L93.5251636,40.4602909 C93.3211636,40.4602909 93.1222545,40.5570182 92.9258909,40.9053818 L91.7029818,43.1257455 C91.6298909,43.2715636 91.6178909,43.4766545 91.6178909,43.6581091 L91.6177532,44.6904687 C91.6200048,45.1511585 91.6637732,45.1311145 92.2451636,45.2013818 L92.2451636,45.3926545 L90.2738909,45.3926545 L90.2738909,45.2013818 C90.8575273,45.1311145 90.9024093,45.1511585 90.9048918,44.6904687 L90.9048,43.3515636 L89.7786182,41.1199273 C89.5382545,40.6432 89.3328,40.4602909 88.9935273,40.4602909 L88.9935273,40.2712 L90.8626182,40.2712 Z M99.8362182,40.764 C98.8118545,40.764 98.1384,42.6065455 98.1384,43.8378182 C98.1384,44.3316364 98.2234909,45.2210909 98.9234909,45.2210909 C100.006036,45.2210909 100.585309,43.4407273 100.585309,41.7898182 C100.585309,40.8021818 99.9878545,40.764 99.8362182,40.764 Z M155.748909,41.0389455 L155.734364,41.0389455 L154.862727,43.4171273 L156.527091,43.4171273 L155.748909,41.0389455 Z M171.280582,41.0389455 L171.267127,41.0389455 L170.3944,43.4171273 L172.054764,43.4171273 L171.280582,41.0389455 Z M72.3872364,40.5048364 L71.8236,40.5048364 L71.8236,42.8902909 L72.4301455,42.8902909 C73.0679636,42.8902909 73.3596,42.4092 73.3596,41.5812 C73.3596,40.7822909 72.9203273,40.5048364 72.3872364,40.5048364 Z M173.781818,35.1334545 L173.781818,35.7061818 L41.5432727,35.7061818 L41.5432727,35.1334545 L173.781818,35.1334545 Z M105.980291,25.3978545 C108.015927,25.3978545 109.198473,27.1524 109.198473,28.5971273 C109.198473,30.5771273 107.715927,32.1905818 105.642473,32.1905818 C103.850109,32.1905818 102.452291,30.7364 102.452291,28.9164 C102.452291,26.8894909 104.028655,25.3978545 105.980291,25.3978545 Z M52.7012364,25.3978909 C53.4597212,25.3978909 53.8858828,25.5150626 54.2728609,25.6410306 L54.5026909,25.7168 L54.5026909,25.7168 C54.7652364,25.8011636 54.8688727,25.9324364 54.8688727,26.0822545 L54.8688727,27.2931636 L54.6248727,27.2931636 C54.5965091,26.5422545 54.1179636,25.7258909 52.6263273,25.7258909 C50.8714182,25.7258909 50.0270545,26.9924364 50.0179636,28.6815273 C50.0081455,30.5488 50.8623273,31.8622545 52.7765091,31.8622545 C54.0241455,31.8622545 54.6059636,31.1491636 54.9059636,30.4080727 L55.1499636,30.4080727 L54.8688727,31.5811636 C54.8688727,31.7873455 54.6997818,31.8248 54.4368727,31.9091636 C54.0805091,32.0313455 53.4237818,32.1906182 52.6074182,32.1906182 C50.6841455,32.1906182 48.9477818,31.2713455 48.9477818,28.7568 C48.9477818,27.3117091 50.1772364,25.3978909 52.7012364,25.3978909 Z M145.5612,25.3978545 C145.964473,25.3978545 146.499382,25.4447636 146.874655,25.5760364 C146.931018,25.5945818 146.940473,25.6320364 146.940473,25.6789455 L146.940473,26.9084 L146.696473,26.9084 C146.6212,26.2513091 146.264836,25.7258545 145.514291,25.7258545 C144.969927,25.7258545 144.481927,26.0073091 144.481927,26.7018545 C144.481927,27.3585818 145.139018,27.7527636 146.0772,28.4564 C147.071745,29.1974909 147.390655,29.6760364 147.390655,30.4549455 C147.390655,31.5713091 146.246291,32.1905818 145.120109,32.1905818 C144.519745,32.1905818 144.003745,32.0782182 143.515745,31.8905818 C143.477927,31.8716727 143.449927,31.8342182 143.449927,31.7593091 L143.449927,30.4080364 L143.693927,30.4080364 C143.796836,31.4494909 144.481927,31.8622182 145.204473,31.8622182 C145.870655,31.8622182 146.415018,31.3556727 146.415018,30.6709455 C146.415018,30.0607636 146.086291,29.5636727 144.679018,28.6345818 C144.172473,28.2967636 143.543745,27.9313091 143.543745,26.9084 C143.543745,26.0640364 144.481927,25.3978545 145.5612,25.3978545 Z M72.1404364,25.3978545 C74.1760727,25.3978545 75.3582545,27.1524 75.3582545,28.5971273 C75.3582545,30.5771273 73.8760727,32.1905818 71.8022545,32.1905818 C70.0102545,32.1905818 68.6124364,30.7364 68.6124364,28.9164 C68.6124364,26.8894909 70.1888,25.3978545 72.1404364,25.3978545 Z M82.4039273,25.3978545 C84.4395636,25.3978545 85.6221091,27.1524 85.6221091,28.5971273 C85.6221091,30.5771273 84.1395636,32.1905818 82.0661091,32.1905818 C80.2737455,32.1905818 78.8759273,30.7364 78.8759273,28.9164 C78.8759273,26.8894909 80.4522909,25.3978545 82.4039273,25.3978545 Z M43.6758909,25.3978545 C44.0791636,25.3978545 44.6140727,25.4447636 44.9893455,25.5760364 C45.0457091,25.5945818 45.0551636,25.6320364 45.0551636,25.6789455 L45.0551636,26.9084 L44.8111636,26.9084 C44.7358909,26.2513091 44.3795273,25.7258545 43.6286182,25.7258545 C43.0846182,25.7258545 42.5966182,26.0073091 42.5966182,26.7018545 C42.5966182,27.3585818 43.2537091,27.7527636 44.1918909,28.4564 C45.1860727,29.1974909 45.5053455,29.6760364 45.5053455,30.4549455 C45.5053455,31.5713091 44.3606182,32.1905818 43.2348,32.1905818 C42.6344364,32.1905818 42.1184364,32.0782182 41.6304364,31.8905818 C41.5926182,31.8716727 41.5646182,31.8342182 41.5646182,31.7593091 L41.5646182,30.4080364 L41.8086182,30.4080364 C41.9115273,31.4494909 42.5966182,31.8622182 43.3191636,31.8622182 C43.9853455,31.8622182 44.5297091,31.3556727 44.5297091,30.6709455 C44.5297091,30.0607636 44.2009818,29.5636727 42.7937091,28.6345818 C42.2871636,28.2967636 41.6584364,27.9313091 41.6584364,26.9084 C41.6584364,26.0640364 42.5966182,25.3978545 43.6758909,25.3978545 Z M160.478327,25.3978909 C161.236812,25.3978909 161.662973,25.5150626 162.049952,25.6410306 L162.279782,25.7168 L162.279782,25.7168 C162.542691,25.8011636 162.6456,25.9324364 162.6456,26.0826182 L162.6456,27.2931636 L162.4016,27.2931636 C162.3736,26.5422545 161.895418,25.7258909 160.403418,25.7258909 C158.442327,25.7258909 157.804509,27.0771636 157.794691,28.6815273 C157.7856,30.1640727 158.536145,31.8622545 160.440873,31.8622545 C161.6136,31.8622545 161.717236,31.4309818 161.717236,30.6989818 L161.71729,29.9013675 C161.714604,29.2614638 161.656041,29.2909645 160.722327,29.1975273 L160.722327,28.9538909 L163.433964,28.9538909 L163.433964,29.1975273 C162.67848,29.2899292 162.628941,29.2621024 162.626882,29.880342 L162.627055,31.7593455 C162.026691,31.9935273 161.238327,32.1906182 160.384509,32.1906182 C158.460873,32.1906182 156.725236,31.2713455 156.725236,28.7568 C156.725236,27.3117091 157.944873,25.3978909 160.478327,25.3978909 Z M60.9664364,25.5103273 L60.9664364,25.7543273 C60.2106278,25.8464039 60.1613445,25.8185429 60.1593437,26.4367787 L60.1595273,28.3063273 L63.4529818,28.3063273 L63.4531546,26.4367787 C63.4510961,25.8185429 63.401556,25.8464039 62.6460727,25.7543273 L62.6460727,25.5103273 L65.1697091,25.5103273 L65.1697091,25.7543273 C64.4142259,25.8464039 64.3649768,25.8185429 64.3629795,26.4367787 L64.3629795,31.1515126 C64.3649768,31.7697521 64.4142259,31.7419253 65.1697091,31.8343273 L65.1697091,32.0783273 L62.6460727,32.0783273 L62.6460727,31.8343273 C63.401556,31.7419253 63.4510961,31.7697521 63.4531546,31.1515126 L63.4529818,28.6910545 L60.1595273,28.6910545 L60.1593437,31.1515126 C60.1613445,31.7697521 60.2106278,31.7419253 60.9664364,31.8343273 L60.9664364,32.0783273 L58.4424364,32.0783273 L58.4424364,31.8343273 C59.1982449,31.7419253 59.2475283,31.7697521 59.2495291,31.1515126 L59.2495291,26.4367787 C59.2475283,25.8185429 59.1982449,25.8464039 58.4424364,25.7543273 L58.4424364,25.5103273 L60.9664364,25.5103273 Z M116.834764,25.5102182 L116.834764,27.0211273 L116.590764,27.0211273 C116.468945,26.3262182 116.309309,25.8102182 115.633673,25.8102182 L114.357673,25.8102182 L114.357673,28.6814909 L115.248945,28.6814909 C115.840218,28.6814909 116.093309,28.4469455 116.112218,27.8654909 L116.356218,27.8654909 L116.356218,29.8731273 L116.112218,29.8731273 C116.084218,29.3196727 115.877673,28.9818545 115.248945,28.9818545 L114.357673,28.9818545 L114.357673,30.9051273 C114.357673,31.7782182 114.319855,31.7309455 115.164582,31.8342182 L115.164582,32.0782182 L112.640582,32.0782182 L112.640582,31.8342182 C113.485309,31.7309455 113.447491,31.7782182 113.447491,30.9051273 L113.447491,26.6829455 C113.447491,25.8102182 113.485309,25.8571273 112.640582,25.7542182 L112.640582,25.5102182 L116.834764,25.5102182 Z M139.632109,25.5101818 L139.632109,27.0210909 L139.388109,27.0210909 C139.294291,26.3265455 139.107018,25.8105455 138.431018,25.8105455 L137.155382,25.8105455 L137.155382,28.4938182 L137.943745,28.4938182 C138.534655,28.4938182 138.787745,28.2592727 138.806655,27.6774545 L139.050655,27.6774545 L139.050655,29.676 L138.806655,29.676 C138.787745,29.1225455 138.572109,28.7941818 137.943745,28.7941818 L137.155382,28.7941818 L137.155382,30.9149091 C137.155382,31.7123636 137.521564,31.7781818 138.365927,31.7781818 C139.726291,31.7781818 139.660473,31.3930909 140.092109,30.3890909 L140.336109,30.3890909 L140.054291,32.0781818 L135.438291,32.0781818 L135.438291,31.8341818 C136.193775,31.7417799 136.243314,31.7698977 136.245373,31.1514591 L136.245373,26.4367252 C136.243314,25.8186885 136.193775,25.8462584 135.438291,25.7541818 L135.438291,25.5101818 L139.632109,25.5101818 Z M91.588,25.5101818 L91.588,25.7541818 C90.8325168,25.8462584 90.7832677,25.8186885 90.7812704,26.4367252 L90.7814545,31.0552727 C90.7814545,31.7123636 91.1476364,31.7781818 91.9821818,31.7781818 C93.3429091,31.7781818 93.2865455,31.3930909 93.7181818,30.3890909 L93.9527273,30.3890909 L93.6712727,32.0781818 L89.0643636,32.0781818 L89.0643636,31.8341818 C89.8198469,31.7417799 89.869387,31.7698977 89.8714455,31.1514591 L89.8714455,26.4367252 C89.869387,25.8186885 89.8198469,25.8462584 89.0643636,25.7541818 L89.0643636,25.5101818 L91.588,25.5101818 Z M153.282509,25.5103273 L153.282509,25.7543273 C152.526701,25.8464039 152.477417,25.8185429 152.475416,26.4367787 L152.475416,31.1515126 C152.477417,31.7697521 152.526701,31.7419253 153.282509,31.8343273 L153.282509,32.0783273 L150.758509,32.0783273 L150.758509,31.8343273 C151.469858,31.7473607 151.555358,31.7668943 151.564624,31.2540631 L151.564624,26.3342292 C151.555358,25.8214056 151.469858,25.8409876 150.758509,25.7543273 L150.758509,25.5103273 L153.282509,25.5103273 Z M168.170982,25.5101455 C169.5688,27.2083273 171.023345,28.9348727 172.421527,30.6330545 L172.440073,30.6330545 L172.440073,26.7770545 C172.440073,26.5799636 172.402618,26.4203273 172.384073,26.2701455 C172.337164,25.9326909 172.017891,25.8010545 171.398982,25.7541455 L171.398982,25.5101455 L173.697527,25.5101455 L173.697527,25.7541455 C173.256436,25.8010545 172.937527,25.9326909 172.890618,26.2701455 C172.871709,26.4203273 172.834255,26.5799636 172.834255,26.7770545 L172.834255,32.0781455 L172.515345,32.0781455 C171.023345,30.3141455 169.475345,28.4657818 167.945891,26.6643273 L167.945891,30.8116 C167.945891,31.0086909 167.983345,31.1679636 168.002255,31.3181455 C168.049164,31.6559636 168.368073,31.7872364 168.987345,31.8341455 L168.987345,32.0781455 L166.6888,32.0781455 L166.6888,31.8341455 C167.138982,31.7872364 167.448436,31.6559636 167.495345,31.3181455 C167.514255,31.1679636 167.552073,31.0086909 167.552073,30.8116 L167.552073,26.3919636 C167.289164,26.0545091 166.998255,25.7541455 166.463345,25.7541455 L166.463345,25.5101455 L168.170982,25.5101455 Z M128.561964,25.5105091 C130.832509,25.5105091 131.995782,26.6737818 131.995782,28.6065091 C131.995782,30.4828727 130.616509,32.0781455 128.289964,32.0781455 L125.446691,32.0781455 L125.446691,31.8341455 C126.291418,31.7308727 126.2536,31.7781455 126.2536,30.9050545 L126.2536,26.6828727 C126.2536,25.8105091 126.291418,25.8574182 125.446691,25.7541455 L125.446691,25.5105091 L128.561964,25.5105091 Z M71.9335273,25.7258545 C70.3389818,25.7258545 69.6818909,27.1524 69.6818909,28.4284 C69.6818909,30.6989455 70.8451636,31.8622182 72.0557091,31.8622182 C73.8008,31.8622182 74.2888,30.1360364 74.2888,28.8785818 C74.2888,26.6360364 73.0786182,25.7258545 71.9335273,25.7258545 Z M105.773745,25.7258545 C104.178836,25.7258545 103.521745,27.1524 103.521745,28.4284 C103.521745,30.6989455 104.685382,31.8622182 105.895564,31.8622182 C107.641018,31.8622182 108.128655,30.1360364 108.128655,28.8785818 C108.128655,26.6360364 106.918473,25.7258545 105.773745,25.7258545 Z M82.1973818,25.7258545 C80.6024727,25.7258545 79.9453818,27.1524 79.9453818,28.4284 C79.9453818,30.6989455 81.1090182,31.8622182 82.3192,31.8622182 C84.0646545,31.8622182 84.5522909,30.1360364 84.5522909,28.8785818 C84.5522909,26.6360364 83.3421091,25.7258545 82.1973818,25.7258545 Z M128.167782,25.8105091 L127.163782,25.8105091 L127.163782,30.7457818 C127.163782,31.7686909 127.398691,31.7781455 128.289964,31.7781455 C129.772145,31.7781455 130.926327,30.9897818 130.926327,28.6254182 C130.926327,26.8428727 129.969236,25.8105091 128.167782,25.8105091 Z M77.5425455,8.00494545 C80.6832727,8.00494545 83.5941818,10.5329455 83.4029091,13.6740364 L73.4443636,13.6740364 C73.3676364,19.7638545 77.0065455,21.2958545 78.8447273,21.2958545 C80.7218182,21.2958545 81.6789091,20.6449455 83.6323636,18.4616727 L83.6323636,19.4573091 C81.9854545,21.5642182 80.4152727,22.3685818 78.0407273,22.3685818 C73.7887273,22.3685818 70.7247273,19.4191273 70.7247273,15.3209455 C70.7247273,11.2224 73.7123636,8.00494545 77.5425455,8.00494545 Z M97.178,3.79163636 L97.178,8.34981818 L101.888909,8.34981818 L101.888909,9.34581818 L97.178,9.34581818 L97.178,18.0785455 C97.178,19.9556364 98.1354545,20.9130909 99.6292727,20.9130909 C100.624909,20.9130909 101.352545,20.5298182 102.156909,19.6105455 L102.578727,20.1083636 C101.391091,21.6025455 100.012182,22.3683636 98.4801818,22.3683636 C96.182,22.3683636 94.5732727,20.7596364 94.5732727,18.4232727 L94.5732727,9.34581818 L92.0070909,9.34581818 L92.0070909,8.69454545 C93.8456364,7.77527273 95.3776364,6.12836364 96.5267273,3.79163636 L97.178,3.79163636 Z M149.254109,8.00509091 C151.513745,8.00509091 154.156655,9.30727273 154.156655,12.9843636 L154.156655,18.8061818 C154.156655,20.3767273 154.309745,20.9130909 154.922836,20.9130909 C155.343927,20.9130909 155.535564,20.5683636 155.841745,19.6105455 L156.493018,19.6105455 C156.377745,21.296 155.382109,22.3683636 153.850109,22.3683636 C152.701018,22.3683636 152.011927,21.7938182 151.551927,20.4534545 C150.2112,21.9087273 149.330473,22.3683636 147.913382,22.3683636 C145.806473,22.3683636 144.044655,20.7596364 144.044655,18.768 C144.044655,14.8996364 149.330473,15.0527273 151.551927,13.7505455 L151.551927,12.7545455 C151.551927,10.8396364 150.441018,9.46072727 148.526109,9.46072727 C146.994109,9.46072727 145.499927,10.4181818 144.925745,12.3716364 L144.236291,12.18 C144.810836,9.652 146.802473,8.00509091 149.254109,8.00509091 Z M49.6409818,-0.000218181818 L49.6409818,0.651054545 C47.8406182,0.842690909 47.3428,1.53214545 47.9940727,3.29396364 L53.1264364,17.2361455 L57.7995273,4.48123636 L57.3013455,3.06414545 C56.6504364,1.18705455 55.8075273,0.651054545 54.2373455,0.651054545 L54.2373455,-0.000218181818 L62.2806182,-0.000218181818 L62.2806182,0.651054545 C60.2889818,0.651054545 59.7144364,1.34050909 60.4420727,3.33214545 L65.5748,17.2361455 L70.0562545,4.94087273 C71.0137091,2.33650909 70.8220727,0.612872727 68.4093455,0.612872727 L68.4093455,-0.000218181818 L75.0737091,-0.000218181818 L75.0737091,0.651054545 C73.3500727,0.765963636 72.3926182,1.87650909 71.2049818,5.09432727 L65.0384364,22.2536 L64.3489818,22.2536 L58.3740727,6.05178182 L52.5518909,22.2536 L51.9391636,22.2536 L45.2362545,4.13650909 C43.9718909,0.765963636 43.3595273,0.651054545 41.5206182,0.651054545 L41.5206182,-0.000218181818 L49.6409818,-0.000218181818 Z M121.639745,8.00505455 L121.639745,10.8396 L121.716473,10.8396 C122.827018,9.11596364 124.742291,8.00505455 126.542291,8.00505455 C128.342655,8.00505455 130.104473,9.00105455 130.794291,11.0694182 C132.2492,9.03923636 133.9732,8.00505455 135.811382,8.00505455 C137.726655,8.00505455 140.407745,9.11596364 140.407745,12.6014182 L140.407745,19.4192364 C140.407745,20.7981455 140.867745,21.2959636 142.705927,21.2959636 L142.705927,21.9472364 L135.5052,21.9472364 L135.5052,21.2959636 C137.420109,21.2959636 137.803382,20.9130545 137.803382,18.6916 L137.803382,12.2566909 C137.803382,10.4948727 136.654291,9.46069091 134.854291,9.46069091 C133.398655,9.46069091 132.211382,10.2650545 131.023745,12.0650545 L131.023745,19.3425091 C131.023745,20.7599636 131.4452,21.2959636 133.283745,21.2959636 L133.283745,21.9472364 L126.159382,21.9472364 L126.159382,21.2959636 C127.997927,21.2959636 128.419018,21.1043273 128.419018,18.6916 L128.419018,12.4097818 C128.419018,10.3799636 127.002291,9.46069091 125.546655,9.46069091 C124.014655,9.46069091 122.520836,10.5330545 121.639745,12.0650545 L121.639745,19.4574182 C121.639745,20.8363273 122.214291,21.3345091 123.937927,21.3345091 L123.937927,21.9472364 L116.736836,21.9472364 L116.736836,21.2959636 C118.345564,21.2959636 119.035382,21.1428727 119.035382,19.1126909 L119.035382,11.0694182 C119.035382,9.5756 118.384109,9.07778182 117.158291,9.07778182 L116.315745,9.07778182 L116.315745,8.42650909 L120.988836,8.00505455 L121.639745,8.00505455 Z M89.8476364,8.00498182 L89.8476364,19.4191636 C89.8476364,20.7598909 90.1923636,21.2958909 92.1072727,21.2958909 L92.1072727,21.9471636 L84.6770909,21.9471636 L84.6770909,21.2958909 C86.7450909,21.2958909 87.2429091,21.0278909 87.2429091,19.4191636 L87.2429091,11.1075273 C87.2429091,9.2308 86.6683636,9.07770909 84.6770909,9.07770909 L84.6770909,8.42643636 L89.1963636,8.00498182 L89.8476364,8.00498182 Z M115.152436,8.42636364 L115.152436,9.07763636 L106.534255,21.2961818 L110.747709,21.2961818 C113.4288,21.2961818 114.769164,20.4150909 114.845891,17.8103636 L115.4968,17.8103636 L115.152436,21.9470909 L103.432073,21.9470909 L103.432073,21.2961818 L112.049891,9.07763636 L108.257891,9.07763636 C105.921527,9.07763636 104.3128,10.3416364 104.082982,12.3714545 L103.432073,12.3714545 L103.7768,8.42636364 L115.152436,8.42636364 Z M162.080364,8.00516364 L162.080364,10.7244364 C163.689091,8.88589091 165.259273,8.00516364 166.982909,8.00516364 C169.242545,8.00516364 171.579273,9.61389091 171.579273,12.8695273 L171.579273,18.9978909 C171.579273,20.7597091 171.962182,21.2960727 173.877091,21.2960727 L173.877091,21.9469818 L166.638182,21.9469818 L166.638182,21.2960727 C168.476727,21.2960727 168.974545,20.8746182 168.974545,19.6106182 L168.974545,12.5248 C168.974545,10.3415273 167.404364,9.42225455 165.949091,9.42225455 C164.608,9.42225455 163.420727,10.2648 162.080364,12.0651636 L162.080364,18.6913455 C162.080364,20.7597091 162.348364,21.2960727 164.378182,21.2960727 L164.378182,21.9469818 L157.216,21.9469818 L157.216,21.2960727 C159.016,21.2960727 159.475636,21.1426182 159.475636,18.6913455 L159.475636,11.0691636 C159.475636,9.42225455 159.054545,9.07752727 157.216,9.07752727 L157.216,8.42625455 L161.429091,8.00516364 L162.080364,8.00516364 Z M151.551927,14.5930909 C148.985745,15.704 146.687564,15.6654545 146.687564,18.4232727 C146.687564,19.8021818 147.645382,20.9130909 148.755927,20.9130909 C149.560291,20.9130909 151.015564,20.3385455 151.551927,19.1894545 L151.551927,14.5930909 Z M77.1978182,8.80930909 C74.9378182,8.80930909 73.5974545,10.4947636 73.4443636,13.0227636 L80.8367273,13.0227636 C80.9512727,10.0351273 78.9214545,8.80930909 77.1978182,8.80930909 Z M88.5836364,0.995890909 C89.5029091,0.995890909 90.2305455,1.72352727 90.2305455,2.6428 C90.2305455,3.56207273 89.5029091,4.32789091 88.5836364,4.32789091 C87.6643636,4.32789091 86.8985455,3.56207273 86.8985455,2.6428 C86.8985455,1.72352727 87.6643636,0.995890909 88.5836364,0.995890909 Z"
         id="logotext"
         style="fill:#ffffff" />
    </g>
  </g>
</svg>
